<svg class="features-icon" id="features-icon" xmlns="http://www.w3.org/2000/svg"viewBox="0 0 120 120">
<g>
	<circle cx="99.275" cy="27.327" r="0.914"/>
	<circle cx="102.015" cy="27.327" r="0.914"/>
	<circle cx="104.759" cy="27.327" r="0.914"/>
	<path fill="none" d="M104.507,33.792c-0.021,0.015-0.03,0.034-0.024,0.061c0.003,0.024,0.021,0.042,0.045,0.052l1.08,0.369
		c0.021,0.007,0.04,0.003,0.061-0.01c0.018-0.013,0.023-0.03,0.023-0.053l-0.002-1.139c0-0.024-0.012-0.044-0.034-0.058
		c-0.026-0.011-0.048-0.009-0.068,0.006l-0.254,0.181l-0.02,0.017c-0.139-0.137-0.296-0.246-0.477-0.325
		c-0.183-0.077-0.376-0.118-0.584-0.118c-0.207,0-0.403,0.041-0.585,0.118c-0.184,0.079-0.343,0.188-0.479,0.323
		c-0.137,0.137-0.244,0.296-0.322,0.479c-0.08,0.184-0.119,0.38-0.119,0.586c0,0.207,0.039,0.402,0.119,0.586
		c0.078,0.183,0.186,0.343,0.322,0.479c0.136,0.137,0.295,0.244,0.479,0.323c0.182,0.079,0.378,0.119,0.585,0.119
		c0.126,0,0.247-0.015,0.367-0.047c0.119-0.029,0.234-0.072,0.341-0.129c0.106-0.059,0.205-0.127,0.298-0.209
		c0.091-0.082,0.173-0.177,0.244-0.281c0.014-0.02,0.016-0.037,0.01-0.056c-0.005-0.023-0.013-0.039-0.03-0.046l-0.377-0.266
		c-0.018-0.011-0.036-0.016-0.06-0.011c-0.023,0.002-0.041,0.016-0.055,0.034c-0.08,0.125-0.188,0.222-0.316,0.29
		c-0.131,0.068-0.272,0.103-0.423,0.103c-0.121,0-0.237-0.024-0.343-0.07c-0.11-0.047-0.204-0.111-0.285-0.191
		c-0.08-0.081-0.145-0.175-0.191-0.282c-0.047-0.108-0.07-0.224-0.07-0.346s0.023-0.236,0.07-0.346
		c0.047-0.108,0.111-0.201,0.191-0.282c0.08-0.08,0.175-0.144,0.285-0.19c0.106-0.047,0.222-0.071,0.343-0.071
		c0.106,0,0.203,0.017,0.297,0.051c0.095,0.033,0.177,0.08,0.253,0.14l-0.043,0.033L104.507,33.792z"/>
	<g>
		<polygon fill="none" points="24.299,35.787 24.299,34.281 24.828,34.281 23.192,32.772 21.557,34.281 22.083,34.281
			22.083,35.787 22.903,35.787 22.903,34.93 23.462,34.93 23.462,35.787 		"/>
		<polygon fill="none" points="12.293,59.458 12.974,59.458 19.28,54.451 23.193,57.224 28.805,54.451 33.442,55.973 40.099,48.966
			44.668,55.669 49.343,54.482 52.39,57.878 61.073,56.735 67.929,51.402 74.57,55.364 81.008,54.482 85.868,51.098 90.779,48.966
			94.892,52.347 99.727,47.747 104.219,50.337 107.705,44.695 107.705,38.387 12.293,38.387 		"/>
		<polygon fill="none" points="13.841,34.354 15.387,35.703 15.387,35.103 16.615,35.103 16.615,33.606 15.387,33.606
			15.387,33.005 		"/>
		<path fill="none" d="M12.293,94.9c0,0.412,0.335,0.748,0.745,0.748h93.919c0.411,0,0.746-0.336,0.746-0.748V60.538h-95.41V94.9z
			 M16.594,71.506h2.743v1.025h-2.743V71.506z M16.594,73.332h28.074v1.027H16.594V73.332z M16.594,75.16h28.074v1.027H16.594V75.16
			z M16.594,78.93h2.743v1.027h-2.743V78.93z M16.594,80.758h28.074v1.027H16.594V80.758z M16.594,82.584h28.074v1.027H16.594
			V82.584z"/>
		<polygon fill="none" points="20.723,34.353 19.178,33.005 19.178,33.604 17.951,33.604 17.951,35.101 19.178,35.101
			19.178,35.703 		"/>
		<path fill="none" d="M106.959,24.352H13.04c-0.41,0-0.744,0.334-0.744,0.745v5.205h95.41v-5.205
			C107.705,24.686,107.369,24.352,106.959,24.352z"/>
		<path fill="none" d="M104.507,33.792c-0.021,0.015-0.03,0.034-0.024,0.061c0.003,0.024,0.021,0.042,0.045,0.052l1.08,0.369
			c0.021,0.007,0.04,0.003,0.061-0.01c0.018-0.013,0.023-0.03,0.023-0.053l-0.002-1.139c0-0.024-0.012-0.044-0.034-0.058
			c-0.026-0.011-0.048-0.009-0.068,0.006l-0.254,0.181l-0.02,0.017c-0.139-0.137-0.296-0.246-0.477-0.325
			c-0.183-0.077-0.376-0.118-0.584-0.118c-0.207,0-0.403,0.041-0.585,0.118c-0.184,0.079-0.343,0.188-0.479,0.323
			c-0.137,0.137-0.244,0.296-0.322,0.479c-0.08,0.184-0.119,0.38-0.119,0.586c0,0.207,0.039,0.402,0.119,0.586
			c0.078,0.183,0.186,0.343,0.322,0.479c0.136,0.137,0.295,0.244,0.479,0.323c0.182,0.079,0.378,0.119,0.585,0.119
			c0.126,0,0.247-0.015,0.367-0.047c0.119-0.029,0.234-0.072,0.341-0.129c0.106-0.059,0.205-0.127,0.298-0.209
			c0.091-0.082,0.173-0.177,0.244-0.281c0.014-0.02,0.016-0.037,0.01-0.056c-0.005-0.023-0.013-0.039-0.03-0.046l-0.377-0.266
			c-0.018-0.011-0.036-0.016-0.06-0.011c-0.023,0.002-0.041,0.016-0.055,0.034c-0.08,0.125-0.188,0.222-0.316,0.29
			c-0.131,0.068-0.272,0.103-0.423,0.103c-0.121,0-0.237-0.024-0.343-0.07c-0.11-0.047-0.204-0.111-0.285-0.191
			c-0.08-0.081-0.145-0.175-0.191-0.282c-0.047-0.108-0.07-0.224-0.07-0.346s0.023-0.236,0.07-0.346
			c0.047-0.108,0.111-0.201,0.191-0.282c0.08-0.08,0.175-0.144,0.285-0.19c0.106-0.047,0.222-0.071,0.343-0.071
			c0.106,0,0.203,0.017,0.297,0.051c0.095,0.033,0.177,0.08,0.253,0.14l-0.043,0.033L104.507,33.792z"/>
		<path fill="none" d="M100.557,35.979c0.199,0,0.361-0.163,0.361-0.363v-2.48c0-0.2-0.162-0.363-0.361-0.363H26.77
			c-0.199,0-0.361,0.165-0.361,0.363v2.48c0,0.2,0.162,0.363,0.361,0.363H100.557z"/>
		<rect x="16.594" y="71.506" width="2.743" height="1.025"/>
		<rect x="16.594" y="73.332" width="28.074" height="1.027"/>
		<rect x="16.594" y="75.16" width="28.074" height="1.027"/>
		<rect x="16.594" y="78.93" width="2.743" height="1.027"/>
		<rect x="16.594" y="80.758" width="28.074" height="1.027"/>
		<rect x="16.594" y="82.584" width="28.074" height="1.027"/>
		<path d="M106.959,23.456H13.04c-0.903,0-1.64,0.737-1.64,1.642V94.9c0,0.908,0.736,1.645,1.64,1.645h93.92
			c0.905,0,1.641-0.736,1.641-1.645V25.097C108.599,24.193,107.865,23.456,106.959,23.456z M107.705,94.9
			c0,0.412-0.336,0.748-0.745,0.748H13.04c-0.41,0-0.744-0.336-0.744-0.748V60.538h95.41L107.705,94.9L107.705,94.9z
			 M107.705,44.695l-3.485,5.643l-4.492-2.589l-4.836,4.599l-4.113-3.379l-4.91,2.133l-4.859,3.383l-6.44,0.882l-6.64-3.96
			l-6.855,5.331l-8.685,1.144l-3.046-3.396l-4.676,1.186l-4.569-6.701l-6.657,7.006l-4.637-1.523l-5.612,2.774l-3.914-2.774
			l-6.305,5.01h-0.679V38.387h95.411V44.695z M16.615,33.606v1.495h-1.228v0.602l-1.546-1.35l1.546-1.349v0.602H16.615z
			 M17.951,35.101v-1.495h1.228v-0.601l1.545,1.349l-1.545,1.35v-0.603H17.951z M22.903,34.93v0.856h-0.818v-1.506h-0.527
			l1.635-1.509l1.636,1.509h-0.528v1.506h-0.837V34.93H22.903z M26.409,35.616v-2.48c0-0.2,0.162-0.363,0.361-0.363h73.787
			c0.199,0,0.361,0.165,0.361,0.363v2.48c0,0.2-0.162,0.363-0.361,0.363H26.77C26.571,35.979,26.409,35.816,26.409,35.616z
			 M104.551,33.439c-0.096-0.033-0.192-0.049-0.298-0.049c-0.12,0-0.237,0.023-0.344,0.069c-0.109,0.048-0.202,0.112-0.283,0.191
			c-0.082,0.081-0.146,0.175-0.192,0.283c-0.047,0.109-0.068,0.224-0.068,0.345c0,0.122,0.021,0.235,0.068,0.346
			c0.047,0.108,0.11,0.202,0.192,0.282c0.079,0.08,0.174,0.144,0.283,0.192c0.107,0.046,0.224,0.069,0.344,0.069
			c0.149,0,0.291-0.035,0.422-0.104c0.131-0.067,0.237-0.164,0.318-0.289c0.013-0.019,0.029-0.031,0.054-0.035
			c0.022-0.005,0.042,0,0.06,0.013l0.378,0.264c0.018,0.009,0.024,0.023,0.029,0.048c0.007,0.018,0.003,0.036-0.01,0.055
			c-0.069,0.104-0.152,0.198-0.245,0.281c-0.091,0.083-0.191,0.151-0.297,0.209c-0.107,0.057-0.222,0.1-0.342,0.13
			c-0.118,0.03-0.24,0.045-0.366,0.045c-0.206,0-0.401-0.039-0.585-0.118s-0.342-0.187-0.479-0.323
			c-0.135-0.136-0.243-0.296-0.322-0.479c-0.08-0.184-0.118-0.379-0.118-0.586s0.038-0.403,0.118-0.586
			c0.079-0.183,0.188-0.343,0.322-0.478c0.138-0.137,0.296-0.245,0.479-0.323c0.184-0.08,0.379-0.12,0.585-0.12
			c0.208,0,0.402,0.04,0.584,0.12c0.181,0.078,0.339,0.187,0.478,0.323l0.019-0.016l0.254-0.181c0.02-0.015,0.041-0.017,0.067-0.006
			c0.023,0.015,0.035,0.033,0.035,0.057l0.002,1.141c0,0.021-0.007,0.038-0.024,0.052c-0.02,0.013-0.038,0.017-0.061,0.01
			l-1.08-0.369c-0.023-0.009-0.04-0.026-0.045-0.053c-0.005-0.025,0.005-0.044,0.025-0.062l0.254-0.179l0.042-0.032
			C104.728,33.519,104.645,33.471,104.551,33.439z M107.705,30.302H12.293v-5.205c0-0.411,0.335-0.745,0.745-0.745h93.919
			c0.411,0,0.746,0.334,0.746,0.745L107.705,30.302L107.705,30.302z"/>
	</g>
	<path d="M89.311,77.457V67.373c-5.521,0.123-9.961,4.629-9.961,10.182c0,2.729,1.081,5.203,2.831,7.033L89.311,77.457z"/>
	<path d="M89.541,87.742c5.628,0,10.188-4.561,10.188-10.188c0-5.553-4.439-10.059-9.961-10.182v10.182
		c0,0.062-0.025,0.117-0.067,0.16l-7.197,7.197C84.333,86.662,86.807,87.742,89.541,87.742z"/>
</g>
</svg>
