<svg class="integration-icon" id="integration-icon" xmlns="http://www.w3.org/2000/svg" viewBox="0 0 120 120">
<g>
	<path d="M64.795,88.293c-1.564,0-2.838,1.272-2.838,2.833c0,1.566,1.271,2.836,2.838,2.836c1.562,0,2.834-1.269,2.834-2.836
		C67.629,89.565,66.357,88.293,64.795,88.293z"/>
	<path d="M92.43,88.293c-1.564,0-2.836,1.272-2.836,2.833c0,1.566,1.271,2.836,2.836,2.836c1.562,0,2.836-1.269,2.836-2.836
		C95.266,89.565,93.992,88.293,92.43,88.293z"/>
	<circle cx="64.795" cy="71.003" r="2.835"/>
	<path d="M110.475,66.332c-1.562,0-2.836,1.272-2.836,2.835c0,1.566,1.271,2.838,2.836,2.838c1.562,0,2.836-1.271,2.836-2.838
		C113.311,67.604,112.037,66.332,110.475,66.332z"/>
	<path d="M110.475,64.143c-1.828,0-3.428,0.983-4.305,2.447L85.498,55.171l3.379-2.62c0.908,0.911,2.166,1.474,3.553,1.474
		c2.77,0,5.023-2.254,5.023-5.025c0-2.77-2.254-5.026-5.023-5.026c-1.453,0-2.764,0.626-3.684,1.618L69.125,31.409
		c0.439-0.744,0.693-1.61,0.693-2.535c0-2.771-2.252-5.025-5.023-5.025c-2.77,0-5.028,2.255-5.028,5.025
		c0,0.362,0.04,0.713,0.115,1.055l-9.185,3.381l-8.692-3.124c0.112-0.419,0.179-0.857,0.179-1.312c0-2.771-2.255-5.025-5.024-5.025
		c-2.771,0-5.026,2.255-5.026,5.025c0,0.854,0.215,1.657,0.592,2.361L13.171,45.553c-0.918-0.971-2.212-1.58-3.648-1.58
		c-2.77,0-5.024,2.255-5.024,5.026s2.255,5.025,5.024,5.025c1.41,0,2.687-0.585,3.599-1.525l19.61,14.25
		c-0.382,0.707-0.599,1.517-0.599,2.376c0,2.771,2.255,5.025,5.026,5.025c1.324,0,2.526-0.521,3.424-1.36L60.44,88.63
		c-0.424,0.738-0.671,1.588-0.671,2.496c0,2.772,2.256,5.025,5.026,5.025c2.773,0,5.023-2.253,5.023-5.025
		c0-0.588-0.107-1.15-0.293-1.676L81.617,83.6l6.633,4.745c-0.535,0.799-0.846,1.754-0.846,2.781c0,2.772,2.254,5.025,5.025,5.025
		c2.77,0,5.023-2.253,5.023-5.025c0-2.771-2.254-5.022-5.023-5.022c-0.551,0-1.078,0.09-1.57,0.254l-2.672-5.934l17.969-8.695
		c0.879,1.472,2.48,2.465,4.318,2.465c2.771,0,5.027-2.255,5.027-5.026C115.502,66.397,113.246,64.143,110.475,64.143z
		 M105.836,67.24c-0.234,0.56-0.367,1.17-0.381,1.809l-22.016,0.825l-4.375-9.72l5.805-4.496L105.836,67.24z M60.498,71.003
		c0-2.371,1.924-4.294,4.297-4.294c2.371,0,4.291,1.923,4.291,4.294c0,2.374-1.92,4.297-4.291,4.297
		C62.422,75.3,60.498,73.377,60.498,71.003z M42.176,69.291c0.002-0.056,0.008-0.11,0.008-0.166c0-0.481-0.072-0.947-0.2-1.389
		l7.012-2.512l10.988,4.322c-0.071,0.247-0.126,0.5-0.163,0.761L42.176,69.291z M37.169,60.578l4.04,1.587l-1.705,2.516
		c-0.697-0.369-1.492-0.583-2.335-0.583V60.578z M37.164,33.899c1.089,0,2.097-0.353,2.92-0.947l2.868,3.21l-5.787,2.132
		L37.164,33.899z M69.779,70.386c-0.107-0.86-0.434-1.655-0.92-2.326l1.527-1.181l3.012,3.374L69.779,70.386z M68.391,67.499
		c-0.895-0.916-2.133-1.492-3.506-1.517l-0.023-5.29l5.037,5.64L68.391,67.499z M64.809,49.462l8.645,0.008l2.414,5.357
		l-11.016,3.944L64.809,49.462z M64.121,58.77l-8.32-9.316l8.279,0.007L64.121,58.77z M64.805,48.73l-0.02-4.166l7.557,4.175
		L64.805,48.73z M64.076,48.73l-8.928-0.009l-2.246-2.515l4.048-5.973l7.107,3.925L64.076,48.73z M54.167,48.722l-2.966-0.005
		l1.278-1.886L54.167,48.722z M54.821,49.45l8.738,9.786l-14.551,5.213l-6.682-2.629l8.383-12.372L54.821,49.45z M64.086,59.822
		l0.041,0.049l0.027,6.151c-1.729,0.223-3.185,1.323-3.9,2.842L50.04,64.852L64.086,59.822z M64.855,59.591v-0.045l11.312-4.051
		l1.996,4.435l-7.688,5.953L64.855,59.591z M76.857,55.248l4.41-1.58l2.906,1.605l-5.418,4.196L76.857,55.248z M76.557,54.58
		l-2.105-4.678l5.965,3.296L76.557,54.58z M75.178,49.471l12.25,0.014c0.037,0.386,0.123,0.758,0.242,1.114l-6.338,2.271
		L75.178,49.471z M73.926,48.739l-3.383-7.522l17.137,6.158c-0.15,0.438-0.238,0.898-0.264,1.379L73.926,48.739z M72.887,48.205
		l-8.105-4.476l-0.021-4.589l4.826,1.735L72.887,48.205z M64.758,38.363l-0.021-4.466c0.02,0,0.039,0.002,0.059,0.002
		c0.537,0,1.057-0.088,1.541-0.245l2.834,6.294L64.758,38.363z M64.027,38.101L59.5,36.472l2.38-3.512
		c0.619,0.443,1.344,0.748,2.129,0.872L64.027,38.101z M64.033,38.877l0.021,4.449l-6.692-3.697l1.714-2.531L64.033,38.877z
		 M56.718,39.275l-8.04-4.442l2.023-0.745l7.666,2.753L56.718,39.275z M56.308,39.88l-3.906,5.768l-8.193-9.171l3.563-1.312
		L56.308,39.88z M43.686,35.891l-3.042-3.404c0.271-0.26,0.512-0.548,0.718-0.862l5.566,3.076L43.686,35.891z M43.473,36.748
		l8.505,9.523l-1.657,2.445l-13.154-0.014l-0.002-9.633L43.473,36.748z M36.437,48.703l-21.904-0.021
		c-0.026-0.414-0.098-0.815-0.218-1.198l22.121-8.145L36.437,48.703z M36.437,49.433l0.002,10.074l-22.22-8.733
		c0.162-0.43,0.269-0.886,0.308-1.362L36.437,49.433z M37.167,49.434l12.66,0.013l-8.197,12.101l-4.46-1.754L37.167,49.434z
		 M41.905,62.438l6.06,2.382l-6.232,2.232c-0.359-0.791-0.917-1.47-1.612-1.981L41.905,62.438z M69.814,71.113l4.217-0.157
		l9.67,10.826l-2.012,0.972l-12.66-9.059C69.508,72.945,69.793,72.062,69.814,71.113z M74.977,70.92l7.998-0.3l4.256,9.453
		l-2.848,1.376L74.977,70.92z M74.348,70.216l-3.383-3.787l7.506-5.813l4.182,9.288L74.348,70.216z M82.184,53.339l5.77-2.066
		c0.129,0.255,0.281,0.496,0.451,0.724l-3.604,2.79L82.184,53.339z M92.43,44.703c2.371,0,4.297,1.925,4.297,4.297
		c0,2.373-1.926,4.296-4.297,4.296c-2.373,0-4.295-1.923-4.295-4.296C88.135,46.626,90.057,44.703,92.43,44.703z M88.289,46.159
		c-0.121,0.173-0.227,0.354-0.326,0.543l-17.838-6.411l-3.111-6.914c0.662-0.328,1.242-0.795,1.699-1.365L88.289,46.159z
		 M60.498,28.874c0-2.371,1.924-4.295,4.297-4.295c2.371,0,4.291,1.924,4.291,4.295c0,2.372-1.92,4.296-4.291,4.296
		C62.422,33.17,60.498,31.246,60.498,28.874z M60.089,30.63c0.268,0.712,0.689,1.347,1.225,1.862l-2.525,3.727l-7.022-2.523
		L60.089,30.63z M49.631,33.701l-1.799,0.665l-6.119-3.381c0.017-0.038,0.037-0.073,0.052-0.11L49.631,33.701z M32.863,28.874
		c0-2.371,1.924-4.295,4.295-4.295c2.374,0,4.296,1.924,4.296,4.295c0,2.372-1.922,4.296-4.296,4.296
		C34.787,33.17,32.863,31.246,32.863,28.874z M33.12,31.854c0.78,1.054,1.959,1.792,3.314,1.989v4.719L14.04,46.808
		c-0.119-0.24-0.251-0.471-0.406-0.689L33.12,31.854z M9.523,53.296c-2.372,0-4.295-1.923-4.295-4.296
		c0-2.372,1.923-4.297,4.295-4.297c2.373,0,4.296,1.925,4.296,4.297S11.896,53.296,9.523,53.296z M13.59,51.938
		c0.118-0.162,0.228-0.326,0.324-0.503l22.525,8.854v3.866c-1.353,0.196-2.53,0.929-3.312,1.979L13.59,51.938z M37.16,73.421
		c-2.373,0-4.296-1.925-4.296-4.295c0-2.373,1.923-4.296,4.296-4.296c2.372,0,4.294,1.923,4.294,4.296
		C41.454,71.496,39.532,73.421,37.16,73.421z M41.083,72.255c0.511-0.638,0.866-1.402,1.018-2.239l17.669,1.019
		c0.018,2.553,1.944,4.656,4.42,4.955l0.014,10.151c-1.355,0.162-2.547,0.863-3.353,1.886L41.083,72.255z M69.09,91.126
		c0,2.374-1.922,4.297-4.295,4.297s-4.297-1.923-4.297-4.297c0-2.37,1.924-4.294,4.297-4.294S69.09,88.755,69.09,91.126z
		 M69.234,88.779c-0.822-1.553-2.438-2.62-4.301-2.669l-0.016-10.085c1.467-0.038,2.779-0.705,3.676-1.743l12.346,8.832
		L69.234,88.779z M82.367,83.238l1.838-0.891l4.672,5.229c-0.061,0.061-0.117,0.129-0.176,0.192L82.367,83.238z M92.43,86.832
		c2.371,0,4.297,1.923,4.297,4.294c0,2.373-1.926,4.296-4.297,4.296c-2.373,0-4.295-1.923-4.295-4.296
		C88.135,88.755,90.057,86.832,92.43,86.832z M90.186,86.638c-0.264,0.135-0.518,0.288-0.754,0.466l-4.543-5.089l2.641-1.275
		L90.186,86.638z M87.885,79.757l-4.123-9.167l21.727-0.813c0.057,0.455,0.168,0.89,0.338,1.298L87.885,79.757z M110.475,73.464
		c-2.373,0-4.297-1.922-4.297-4.297c0-2.369,1.924-4.292,4.297-4.292c2.371,0,4.295,1.923,4.295,4.292
		C114.77,71.542,112.848,73.464,110.475,73.464z"/>
	<path d="M39.995,69.125c0-1.566-1.271-2.836-2.837-2.836c-1.564,0-2.836,1.269-2.836,2.836c0,1.562,1.271,2.836,2.836,2.836
		C38.724,71.961,39.995,70.687,39.995,69.125z"/>
	<path d="M12.359,48.999c0-1.563-1.273-2.837-2.836-2.837c-1.563,0-2.836,1.273-2.836,2.837s1.272,2.836,2.836,2.836
		C11.085,51.835,12.359,50.563,12.359,48.999z"/>
	<path d="M89.594,48.999c0,1.563,1.271,2.836,2.836,2.836c1.562,0,2.836-1.271,2.836-2.836c0-1.563-1.271-2.837-2.836-2.837
		S89.594,47.436,89.594,48.999z"/>
	<path d="M37.16,31.712c1.564,0,2.836-1.272,2.836-2.838c0-1.562-1.271-2.836-2.836-2.836c-1.565,0-2.838,1.273-2.838,2.836
		C34.322,30.439,35.594,31.712,37.16,31.712z"/>
	<path d="M64.795,31.712c1.562,0,2.834-1.272,2.834-2.838c0-1.562-1.27-2.836-2.834-2.836s-2.838,1.273-2.838,2.836
		C61.957,30.439,63.229,31.712,64.795,31.712z"/>
</g>
</svg>
