<?xml version="1.0" encoding="utf-8"?>
<!-- Generator: Adobe Illustrator 16.0.4, SVG Export Plug-In . SVG Version: 6.00 Build 0)  -->
<!DOCTYPE svg PUBLIC "-//W3C//DTD SVG 1.1//EN" "http://www.w3.org/Graphics/SVG/1.1/DTD/svg11.dtd">
<svg version="1.1" id="Layer_1" xmlns="http://www.w3.org/2000/svg" xmlns:xlink="http://www.w3.org/1999/xlink" x="0px" y="0px"
	 width="150px" height="150px" viewBox="0 0 150 150" enable-background="new 0 0 150 150" xml:space="preserve">
<circle fill="#4C80CC" cx="75" cy="75" r="75"/>
<path fill="#F2F2F2" d="M114.788,52.268c-1.575,0.303-2.902,1.269-4.046,2.959c-0.122,0.181-0.246,0.362-0.365,0.604l-2.775-2.053
	c-1.207-0.241-2.235-0.362-3.143-0.241c-0.601,0-1.083,0.121-1.507,0.3c-0.12,0.062-0.181,0.062-0.244,0.062
	c-0.361,0.482-0.361,1.026,0,1.69l3.745,2.898l-0.059,3.38l-27.412,2.356l-6.643,0.846c-0.603,0.06-1.147,0.119-1.691,0.241
	c-0.303,0.06-0.543,0.118-0.784,0.18c-0.181,0.062-0.361,0.121-0.543,0.241c-0.303,0.062-0.484,0.181-0.725,0.361
	c-0.121,0.062-0.302,0.183-0.422,0.303c-0.244,0.181-0.364,0.302-0.544,0.543c-0.241,0.3-0.424,0.604-0.482,1.026
	c-0.062,0.241-0.121,0.482-0.121,0.785l-0.364,0.059l-0.361-0.361L42.271,47.92c-4.949-1.749-7.547-1.449-7.728,1.026
	c4.589,7.606,9.479,15.337,14.853,23.185c-0.724,0.182-1.45,0.363-2.112,0.604c-1.449,0.424-2.838,1.026-4.167,1.63
	c-1.207,0.605-2.354,1.209-3.502,1.932l0.18-1.932c0.785-3.26,1.147-6.157,1.147-8.513c-0.06-1.509-0.18-2.596-0.301-3.321
	c-0.243-1.147-0.544-1.026-0.847,0.241l-0.362,1.147c-0.665,4.167-0.905,8.332-0.845,12.618c0,0.121,0,0.182,0,0.303l0,0
	c0.059,0.062,0.059,0.062,0.059,0.121c-2.715,1.51-4.165,2.719-4.346,3.562c-0.122,0.663,0.06,1.208,0.542,1.69l-3.139,1.51
	c-2.476,0.907-4.529,2.536-6.219,4.77c-0.181,0.424,0.121,0.665,0.783,0.544c1.933-0.725,3.806-1.69,5.676-2.897l3.986-3.201
	c1.085,0.544,2.836,0.907,5.191,1.087c0.363,0.483,1.026,0.905,1.933,1.207l1.569,1.812c1.509,1.691,3.32,2.898,5.314,3.625
	c0.543,0.179,0.784,0,0.724-0.424l-1.449-2.114l-2.475-2.475c0.785,0,1.691,0,2.719-0.122c1.87,1.207,3.803,1.268,5.796,0.303
	c0.543-0.303,1.146-0.664,1.751-1.148h3.381l32.904,27.836c2.114,0.425,3.865,0.664,5.316,0.664c2.655,0,4.228-0.785,4.711-2.414
	L81.276,82.58v-3.262l0.059-0.061l11.895-4.831l15.157-6.642l0.062,0.967c0-0.062,0.117-0.181,0.178-0.243
	c0.244-0.242,0.48-0.362,0.844-0.301c0.061-0.061,0.183-0.061,0.241,0l0.065-0.182v-0.965l5.613-1.874l5.918,3.926
	c0.966,0.361,1.932,0.361,2.897,0c0.482-0.848,0.482-1.69,0-2.658c-0.907-2.172-2.897-3.803-5.918-4.769v-7.606
	C117.743,52.69,116.6,52.085,114.788,52.268z M107.482,61.807l0.059-2.416l1.085,0.906L107.482,61.807z"/>
</svg>
