<?xml version="1.0" encoding="utf-8"?>
<!-- Generator: Adobe Illustrator 16.0.4, SVG Export Plug-In . SVG Version: 6.00 Build 0)  -->
<!DOCTYPE svg PUBLIC "-//W3C//DTD SVG 1.1//EN" "http://www.w3.org/Graphics/SVG/1.1/DTD/svg11.dtd">
<svg version="1.1" id="Layer_1" xmlns="http://www.w3.org/2000/svg" xmlns:xlink="http://www.w3.org/1999/xlink" x="0px" y="0px"
	 width="150px" height="150px" viewBox="0 0 150 150" enable-background="new 0 0 150 150" xml:space="preserve">
<circle fill="#4E99CC" cx="75" cy="75" r="75"/>
<g>
	<path fill="#F2F2F2" d="M55.368,67.9c0.133-0.412,0.487-0.996,0.791-1.305l5.824-5.936c0.303-0.31,0.899-0.582,1.33-0.61
		l10.258-0.681c0.432-0.028,0.58,0.236,0.333,0.592l-29.341,42.08c-0.248,0.355-0.34,0.31-0.208-0.102L55.368,67.9z"/>
	<path fill="#F2F2F2" d="M44.866,102.344l43.059-40.466c0.315-0.296,0.921-0.52,1.353-0.498l15.972,0.803
		c0.432,0.023,0.584,0.33,0.342,0.688L97.067,75.39c-0.243,0.357-0.754,0.808-1.139,1.005l-50.937,26.129
		C44.607,102.723,44.549,102.641,44.866,102.344z"/>
	<path fill="#F2F2F2" d="M74.39,63.986l1.921,4.76c0.107,0.33-0.007,0.796-0.254,1.04L49.489,96.652
		c-0.247,0.243-0.287,0.209-0.089-0.075l24.438-32.671C74.038,63.621,74.285,63.656,74.39,63.986z"/>
</g>
</svg>
