<?xml version="1.0" encoding="utf-8"?>
<!-- Generator: Adobe Illustrator 16.0.4, SVG Export Plug-In . SVG Version: 6.00 Build 0)  -->
<!DOCTYPE svg PUBLIC "-//W3C//DTD SVG 1.1//EN" "http://www.w3.org/Graphics/SVG/1.1/DTD/svg11.dtd">
<svg version="1.1" id="Layer_1" xmlns="http://www.w3.org/2000/svg" xmlns:xlink="http://www.w3.org/1999/xlink" x="0px" y="0px"
	 width="275.023px" height="51.556px" viewBox="0 0 275.023 51.556" enable-background="new 0 0 275.023 51.556"
	 xml:space="preserve">
<linearGradient id="SVGID_1_" gradientUnits="userSpaceOnUse" x1="-234.6572" y1="-34.3042" x2="-464.2891" y2="94.6678" gradientTransform="matrix(1 0 -0.1763 1 397.8517 0)">
	<stop  offset="0" style="stop-color:#FFFFFF"/>
	<stop  offset="1" style="stop-color:#FFFFFF"/>
</linearGradient>
<path fill="url(#SVGID_1_)" d="M0,51.556h4.76L13.85,0H9.092L0,51.556z M50.685,0h-29.83l-9.092,51.556h4.76l3.395-19.236h25.067
	c6.981,0,12.56-4.65,13.829-11.848l1.52-8.624C61.603,4.651,57.664,0,50.685,0z M54.13,20.051c-0.896,5.077-4.025,7.825-9.102,7.825
	H20.7L24.832,4.44H49.16c5.077,0,7.238,2.751,6.343,7.825L54.13,20.051z M108.691,16.269l0.78-4.421
	C110.74,4.651,106.801,0,99.819,0h-19.99c-6.982,0-12.563,4.651-13.832,11.848l-4.912,27.861
	c-1.269,7.192,2.673,11.847,9.654,11.847H90.73c6.981,0,12.56-4.654,13.827-11.847l1.844-10.454H85.777l-0.765,4.334h15.866
	l-1.006,5.697c-0.894,5.077-4.025,7.828-9.1,7.828H72.259c-5.074,0-7.235-2.751-6.338-7.828l4.763-27.021
	c0.897-5.074,4.025-7.825,9.103-7.825h18.511c5.077,0,7.235,2.751,6.341,7.825l-0.707,4.003H108.691z"/>
<linearGradient id="SVGID_2_" gradientUnits="userSpaceOnUse" x1="-160.3198" y1="-32.7363" x2="-278.7975" y2="102.9495" gradientTransform="matrix(1 0 -0.1763 1 397.8517 0)">
	<stop  offset="0" style="stop-color:#E4E4E4"/>
	<stop  offset="1" style="stop-color:#FFFFFF"/>
</linearGradient>
<path fill="url(#SVGID_2_)" d="M154.656,0h-35.857l-9.092,51.556h12.692l2.794-15.849h23.165c6.452,0,12.55-5.184,13.688-11.636
	l2.191-12.437C165.376,5.183,161.105,0,154.656,0z M149.837,21.317c-0.279,1.589-1.756,2.754-3.342,2.754h-19.25l2.194-12.437h19.25
	c1.583,0,2.65,1.166,2.371,2.752L149.837,21.317z M260.057,0l-15.935,20.472L235.978,0h-15.534l14.853,34.541l-3.002,17.015h12.694
	l3-17.015L275.023,0H260.057z M208.808,0h-24.857c-6.452,0-12.443,5.183-13.581,11.635l-7.038,39.921h12.692l2.794-15.849h22.635
	l-2.794,15.849h12.694l7.038-39.921C219.528,5.183,215.263,0,208.808,0z M203.508,24.071h-22.635l1.705-9.685
	c0.281-1.586,1.753-2.752,3.341-2.752h16.923c1.588,0,2.652,1.166,2.371,2.752L203.508,24.071z"/>
</svg>
