<?xml version="1.0" encoding="utf-8"?>
<!-- Generator: Adobe Illustrator 16.0.4, SVG Export Plug-In . SVG Version: 6.00 Build 0)  -->
<!DOCTYPE svg PUBLIC "-//W3C//DTD SVG 1.1//EN" "http://www.w3.org/Graphics/SVG/1.1/DTD/svg11.dtd">
<svg version="1.1" id="logo" xmlns="http://www.w3.org/2000/svg" xmlns:xlink="http://www.w3.org/1999/xlink" x="0px" y="0px"
	 width="120px" height="56px" viewBox="0 17.625 120 56" enable-background="new 0 17.625 120 56" xml:space="preserve">
<g id="mark">
	
		<linearGradient id="SVGID_1_" gradientUnits="userSpaceOnUse" x1="1286.0439" y1="-799.3223" x2="1332.4342" y2="-799.3223" gradientTransform="matrix(0.3178 0 0 -0.3178 -335.6589 -208.1736)">
		<stop  offset="0" style="stop-color:#6D6E71"/>
		<stop  offset="1" style="stop-color:#A7A9AC"/>
	</linearGradient>
	<polygon fill="url(#SVGID_1_)" points="85.446,43.869 72.466,43.869 73.818,47.85 87.365,47.85 	"/>
	<g>
		
			<linearGradient id="SVGID_2_" gradientUnits="userSpaceOnUse" x1="1318.6143" y1="-756.8511" x2="1286.5922" y2="-803.9177" gradientTransform="matrix(0.3178 0 0 -0.3178 -335.6589 -208.1736)">
			<stop  offset="0" style="stop-color:#6D6E71"/>
			<stop  offset="0.3204" style="stop-color:#848689"/>
			<stop  offset="0.7453" style="stop-color:#9E9FA2"/>
			<stop  offset="1" style="stop-color:#A7A9AC"/>
		</linearGradient>
		<path fill="url(#SVGID_2_)" d="M77.537,47.475c-0.088-0.096-1.895-1.492-0.667-3.615v0l7.099-11.709
			c0.56-0.936,1.151-1.058,1.783-1.07h-5.809c-0.805,0-1.544-0.085-2.235,1.07l-7.099,11.709v0c-1.228,2.123,0.579,3.52,0.668,3.615
			c0.629,0.463,1.416,0.357,2.352,0.368c1.653,0.019,3.409-0.01,5.105,0.001C78.225,47.83,77.928,47.762,77.537,47.475z"/>
		
			<linearGradient id="SVGID_3_" gradientUnits="userSpaceOnUse" x1="1305.7197" y1="-805.499" x2="1305.6125" y2="-805.6566" gradientTransform="matrix(0.3178 0 0 -0.3178 -335.6589 -208.1736)">
			<stop  offset="0" style="stop-color:#6D6E71"/>
			<stop  offset="0.3204" style="stop-color:#848689"/>
			<stop  offset="0.7453" style="stop-color:#9E9FA2"/>
			<stop  offset="1" style="stop-color:#A7A9AC"/>
		</linearGradient>
		<path fill="url(#SVGID_3_)" d="M79.231,47.846c0.044,0,0.089,0,0.132,0.001c-0.005-0.001-0.008-0.001-0.013-0.002
			C79.311,47.846,79.271,47.846,79.231,47.846z"/>
	</g>
	
		<linearGradient id="SVGID_4_" gradientUnits="userSpaceOnUse" x1="1338.4766" y1="-792.728" x2="1318.5419" y2="-747.8749" gradientTransform="matrix(0.3178 0 0 -0.3178 -335.6589 -208.1736)">
		<stop  offset="0" style="stop-color:#6D6E71"/>
		<stop  offset="1" style="stop-color:#A7A9AC"/>
	</linearGradient>
	<path fill="url(#SVGID_4_)" d="M88.895,32.384c-0.844-1.543-2.021-1.288-3.5-1.304l-5.945-0.007
		c0.68,0.111,1.192,0.272,1.768,1.324l4.962,10.289h7.7L88.895,32.384z"/>
	
		<linearGradient id="SVGID_5_" gradientUnits="userSpaceOnUse" x1="1393.5186" y1="-726.7705" x2="1353.806" y2="-784.7378" gradientTransform="matrix(0.3178 0 0 -0.3178 -335.6589 -208.1736)">
		<stop  offset="0" style="stop-color:#6D6E71"/>
		<stop  offset="1" style="stop-color:#A7A9AC"/>
	</linearGradient>
	<path fill="url(#SVGID_5_)" d="M92.621,37.376l2.548,5.284l11.984-17.359c0.763-1.048,2.933-1.596,4.149-1.735h-6.519l-1.464-0.001
		c-0.784,0.051-1.438,0.278-1.967,1.133L92.621,37.376z"/>
	
		<linearGradient id="SVGID_6_" gradientUnits="userSpaceOnUse" x1="1419.1699" y1="-764.1191" x2="1396.3087" y2="-722.4913" gradientTransform="matrix(0.3178 0 0 -0.3178 -335.6589 -208.1736)">
		<stop  offset="0" style="stop-color:#6D6E71"/>
		<stop  offset="1" style="stop-color:#A7A9AC"/>
	</linearGradient>
	<path fill="url(#SVGID_6_)" d="M113.549,24.532c-0.934-1.049-1.697-0.954-2.939-0.967l-7.291-0.005
		c0.123,0.01,0.238,0.031,0.35,0.059c0.55,0.084,1.032,0.308,1.57,0.913l5.703,6.81l0.698,0.821h8.299L113.549,24.532z"/>
	
		<linearGradient id="SVGID_7_" gradientUnits="userSpaceOnUse" x1="1367.4824" y1="-835.7661" x2="1422.276" y2="-755.7606" gradientTransform="matrix(0.3178 0 0 -0.3178 -335.6589 -208.1736)">
		<stop  offset="0" style="stop-color:#2B3990"/>
		<stop  offset="1" style="stop-color:#00AEEF"/>
	</linearGradient>
	<path fill="url(#SVGID_7_)" d="M120,33.335h-8.371L97.777,54.063c-0.83,1.146-1.686,2.018-3.01,2.168
		c2.364-0.022,4.729,0.026,7.094,0c1.588-0.015,2.851,0.228,3.756-1.235L120,33.335z"/>
	
		<linearGradient id="SVGID_8_" gradientUnits="userSpaceOnUse" x1="1342.5889" y1="-785.8916" x2="1369.0771" y2="-841.9245" gradientTransform="matrix(0.3178 0 0 -0.3178 -335.6589 -208.1736)">
		<stop  offset="0" style="stop-color:#2B3990"/>
		<stop  offset="1" style="stop-color:#00AEEF"/>
	</linearGradient>
	<path fill="url(#SVGID_8_)" d="M86.749,43.859h7.696c0,0,3.853,8.164,5.533,10.48c0.83,1.145,2.002,1.74,3.326,1.892
		c-2.365-0.022-5.051,0.026-7.414,0c-1.59-0.015-2.853,0.228-3.758-1.235L86.749,43.859z"/>
</g>
<path id="ipg" fill="#D6D6D6" d="M17.203,56.422c-0.285,1.614-1.279,2.487-2.893,2.487H6.579l1.313-7.448h7.731
	c1.614,0,2.3,0.875,2.016,2.486L17.203,56.422z M0,66.436h1.513L4.401,50.05H2.89L0,66.436z M16.108,50.05h-9.48l-2.89,16.386h1.513
	l1.079-6.113h7.967c2.218,0,3.992-1.479,4.395-3.766l0.483-2.741C19.578,51.528,18.326,50.05,16.108,50.05z M34.543,55.221
	l0.248-1.406c0.403-2.286-0.849-3.765-3.067-3.765h-6.353c-2.219,0-3.993,1.478-4.396,3.765l-1.561,8.855
	c-0.403,2.285,0.85,3.765,3.068,3.765h6.354c2.219,0,3.992-1.479,4.395-3.765l0.586-3.322h-6.555l-0.243,1.377h5.042l-0.32,1.811
	c-0.284,1.613-1.279,2.488-2.892,2.488h-5.883c-1.613,0-2.299-0.875-2.015-2.488l1.514-8.588c0.285-1.612,1.279-2.486,2.893-2.486
	h5.883c1.613,0,2.299,0.874,2.015,2.486l-0.225,1.272L34.543,55.221L34.543,55.221z"/>
<linearGradient id="pay_1_" gradientUnits="userSpaceOnUse" x1="1040.3496" y1="-779.7695" x2="921.8703" y2="-915.4572" gradientTransform="matrix(0.3178 0 0.056 -0.3178 -209.619 -208.1736)">
	<stop  offset="0" style="stop-color:#2B3990"/>
	<stop  offset="0.4807" style="stop-color:#1673BF"/>
	<stop  offset="1" style="stop-color:#00AEEF"/>
</linearGradient>
<path id="pay" fill="url(#pay_1_)" d="M49.151,50.05H37.756l-2.89,16.386H38.9l0.888-5.037h7.362c2.05,0,3.988-1.648,4.35-3.698
	l0.696-3.952C52.558,51.697,51.201,50.05,49.151,50.05z M47.62,56.824c-0.088,0.506-0.558,0.876-1.062,0.876H40.44l0.697-3.952
	h6.118c0.503,0,0.842,0.37,0.753,0.874L47.62,56.824z M82.648,50.05l-5.064,6.507l-2.588-6.507h-4.938l4.721,10.978l-0.953,5.408
	h4.033l0.954-5.408l8.592-10.978H82.648z M66.361,50.05h-7.9c-2.05,0-3.954,1.647-4.316,3.698l-2.237,12.688h4.034l0.888-5.037
	h7.193l-0.887,5.037h4.033l2.237-12.688C69.769,51.697,68.413,50.05,66.361,50.05z M64.678,57.7h-7.194l0.542-3.078
	c0.089-0.504,0.557-0.874,1.062-0.874h5.378c0.506,0,0.844,0.37,0.754,0.874L64.678,57.7z"/>
</svg>
