<svg version="1.1" id="logo" xmlns="http://www.w3.org/2000/svg" xmlns:xlink="http://www.w3.org/1999/xlink" x="0px" y="0px"
	 width="64.285px" height="22.965px" viewBox="0 33.518 64.285 22.965" enable-background="new 0 33.518 64.285 22.965"
	 xml:space="preserve">
<g id="mark">

		<linearGradient id="SVGID_91_" gradientUnits="userSpaceOnUse" x1="3257.1729" y1="2419.957" x2="3303.5669" y2="2419.957" gradientTransform="matrix(0.1702 0 0 0.1702 -515.4023 -366.5365)">
		<stop  offset="0" style="stop-color:#6D6E71"/>
		<stop  offset="1" style="stop-color:#A7A9AC"/>
	</linearGradient>
	<polygon fill="url(#SVGID_91_)" points="45.774,44.394 38.821,44.394 39.545,46.527 46.803,46.527 	"/>
	<g>

			<linearGradient id="SVGID_92_" gradientUnits="userSpaceOnUse" x1="3289.7959" y1="2377.4854" x2="3257.772" y2="2424.5547" gradientTransform="matrix(0.1702 0 0 0.1702 -515.4023 -366.5365)">
			<stop  offset="0" style="stop-color:#6D6E71"/>
			<stop  offset="0.3204" style="stop-color:#848689"/>
			<stop  offset="0.7453" style="stop-color:#9E9FA2"/>
			<stop  offset="1" style="stop-color:#A7A9AC"/>
		</linearGradient>
		<path fill="url(#SVGID_92_)" d="M41.538,46.326c-0.047-0.052-1.015-0.8-0.357-1.937l0,0l3.803-6.272
			c0.3-0.501,0.617-0.567,0.955-0.573h-3.112c-0.431,0-0.827-0.045-1.197,0.573l-3.803,6.272l0,0
			c-0.658,1.137,0.31,1.886,0.358,1.937c0.337,0.248,0.759,0.191,1.26,0.197c0.885,0.01,1.826-0.006,2.734,0
			C41.906,46.516,41.747,46.479,41.538,46.326z"/>

			<linearGradient id="SVGID_93_" gradientUnits="userSpaceOnUse" x1="3276.8955" y1="2426.1309" x2="3276.7874" y2="2426.2898" gradientTransform="matrix(0.1702 0 0 0.1702 -515.4023 -366.5365)">
			<stop  offset="0" style="stop-color:#6D6E71"/>
			<stop  offset="0.3204" style="stop-color:#848689"/>
			<stop  offset="0.7453" style="stop-color:#9E9FA2"/>
			<stop  offset="1" style="stop-color:#A7A9AC"/>
		</linearGradient>
		<path fill="url(#SVGID_93_)" d="M42.445,46.524c0.023,0,0.047,0,0.071,0.001c-0.003-0.001-0.004-0.001-0.007-0.002
			C42.488,46.524,42.467,46.524,42.445,46.524z"/>
	</g>

		<linearGradient id="SVGID_94_" gradientUnits="userSpaceOnUse" x1="3309.6396" y1="2413.3135" x2="3289.708" y2="2368.467" gradientTransform="matrix(0.1702 0 0 0.1702 -515.4023 -366.5365)">
		<stop  offset="0" style="stop-color:#6D6E71"/>
		<stop  offset="1" style="stop-color:#A7A9AC"/>
	</linearGradient>
	<path fill="url(#SVGID_94_)" d="M47.622,38.241c-0.452-0.826-1.083-0.69-1.875-0.698l-3.185-0.004
		c0.364,0.06,0.639,0.146,0.947,0.709l2.658,5.512h4.125L47.622,38.241z"/>

		<linearGradient id="SVGID_95_" gradientUnits="userSpaceOnUse" x1="3364.6924" y1="2347.4014" x2="3324.98" y2="2405.3687" gradientTransform="matrix(0.1702 0 0 0.1702 -515.4023 -366.5365)">
		<stop  offset="0" style="stop-color:#6D6E71"/>
		<stop  offset="1" style="stop-color:#A7A9AC"/>
	</linearGradient>
	<path fill="url(#SVGID_95_)" d="M49.618,40.916l1.365,2.831l6.42-9.3c0.409-0.561,1.571-0.855,2.223-0.929h-3.492l-0.784,0
		c-0.42,0.027-0.771,0.149-1.054,0.607L49.618,40.916z"/>

		<linearGradient id="SVGID_96_" gradientUnits="userSpaceOnUse" x1="3390.3242" y1="2384.7031" x2="3367.4648" y2="2343.0786" gradientTransform="matrix(0.1702 0 0 0.1702 -515.4023 -366.5365)">
		<stop  offset="0" style="stop-color:#6D6E71"/>
		<stop  offset="1" style="stop-color:#A7A9AC"/>
	</linearGradient>
	<path fill="url(#SVGID_96_)" d="M60.83,34.035c-0.5-0.562-0.909-0.511-1.575-0.518l-3.906-0.003
		c0.066,0.005,0.127,0.017,0.188,0.032c0.294,0.045,0.553,0.165,0.841,0.489l3.055,3.648l0.374,0.44h4.446L60.83,34.035z"/>

		<linearGradient id="SVGID_97_" gradientUnits="userSpaceOnUse" x1="3338.6562" y1="2456.3975" x2="3393.4497" y2="2376.3918" gradientTransform="matrix(0.1702 0 0 0.1702 -515.4023 -366.5365)">
		<stop  offset="0" style="stop-color:#2B3990"/>
		<stop  offset="1" style="stop-color:#00AEEF"/>
	</linearGradient>
	<path fill="url(#SVGID_97_)" d="M64.285,38.751h-4.484L52.38,49.855c-0.444,0.613-0.903,1.08-1.612,1.161
		c1.267-0.012,2.533,0.014,3.8,0c0.851-0.008,1.527,0.122,2.012-0.661L64.285,38.751z"/>

		<linearGradient id="SVGID_98_" gradientUnits="userSpaceOnUse" x1="3313.7441" y1="2406.4834" x2="3340.2307" y2="2462.5125" gradientTransform="matrix(0.1702 0 0 0.1702 -515.4023 -366.5365)">
		<stop  offset="0" style="stop-color:#2B3990"/>
		<stop  offset="1" style="stop-color:#00AEEF"/>
	</linearGradient>
	<path fill="url(#SVGID_98_)" d="M46.473,44.389h4.123c0,0,2.064,4.373,2.964,5.614c0.445,0.613,1.073,0.933,1.782,1.014
		c-1.267-0.012-2.706,0.014-3.972,0c-0.852-0.008-1.528,0.122-2.013-0.661L46.473,44.389z"/>
</g>
<linearGradient id="name_91_" gradientUnits="userSpaceOnUse" x1="671.4395" y1="-465.104" x2="669.4474" y2="-442.3336" gradientTransform="matrix(0.5357 0 0 -0.5357 -335.7679 -191.1248)">
	<stop  offset="0" style="stop-color:#2B7BD8"/>
	<stop  offset="0.3255" style="stop-color:#287ED9"/>
	<stop  offset="0.5753" style="stop-color:#2088DE"/>
	<stop  offset="0.7992" style="stop-color:#1298E5"/>
	<stop  offset="1" style="stop-color:#00AEEF"/>
</linearGradient>
<path id="name" fill="url(#name_91_)" d="M0,56.482h0.811l1.547-8.777H1.548L0,56.482z M8.629,47.705H3.551l-1.548,8.777h0.811
	l0.578-3.274h4.268c1.188,0,2.139-0.792,2.354-2.017l0.259-1.469C10.488,48.497,9.817,47.705,8.629,47.705z M9.449,49.793
	l-0.233,1.326c-0.153,0.863-0.686,1.332-1.55,1.332H3.524l0.704-3.99H8.37C9.234,48.461,9.602,48.93,9.449,49.793z M18.505,50.475
	l0.133-0.752c0.216-1.225-0.455-2.018-1.644-2.018h-3.403c-1.189,0-2.139,0.793-2.355,2.018L10.4,54.466
	c-0.216,1.225,0.455,2.017,1.644,2.017h3.403c1.189,0,2.138-0.791,2.354-2.017l0.314-1.78h-3.512l-0.13,0.738h2.701l-0.171,0.971
	c-0.152,0.864-0.685,1.332-1.549,1.332h-3.152c-0.864,0-1.232-0.468-1.08-1.332l0.811-4.601c0.153-0.864,0.685-1.332,1.55-1.332
	h3.152c0.864,0,1.231,0.468,1.079,1.332l-0.119,0.681H18.505z M26.331,47.705h-6.105l-1.548,8.777h2.161l0.476-2.697h3.944
	c1.099,0,2.137-0.883,2.331-1.981l0.373-2.116C28.157,48.588,27.429,47.705,26.331,47.705z M25.719,50.154l-0.208,1.18
	c-0.048,0.271-0.299,0.469-0.569,0.469h-3.278l0.374-2.116h3.278C25.584,49.687,25.766,49.885,25.719,50.154z M44.276,47.705
	l-2.713,3.486l-1.387-3.486h-2.644l2.528,5.881l-0.511,2.896h2.162l0.51-2.896l4.604-5.881H44.276z M35.551,47.705h-4.232
	c-1.099,0-2.119,0.883-2.312,1.981l-1.198,6.796h2.16l0.476-2.697h3.853l-0.476,2.697h2.161l1.198-6.796
	C37.375,48.588,36.649,47.705,35.551,47.705z M34.939,50.154l-0.291,1.648h-3.854l0.291-1.648c0.047-0.27,0.298-0.468,0.569-0.468
	h2.881C34.805,49.687,34.986,49.885,34.939,50.154z"/>
</svg>
