<svg class="logo-element-fullcolour" id="logo-element-fullcolour" xmlns="http://www.w3.org/2000/svg" viewBox="0 0 308.373 202.535">
	<g>
		<linearGradient id="SVGID_1_" gradientUnits="userSpaceOnUse" x1="17.8301" y1="138.2031" x2="109.2089" y2="138.2031">
			<stop  offset="0" style="stop-color:#6D6E71"/>
			<stop  offset="1" style="stop-color:#A7A9AC"/>
		</linearGradient>
		<polygon fill-rule="evenodd" clip-rule="evenodd" fill="url(#SVGID_1_)" points="94.597,125.868 14.146,125.868 22.531,150.538
			106.492,150.538 "/>
		<g>
			<linearGradient id="SVGID_2_" gradientUnits="userSpaceOnUse" x1="81.9849" y1="54.5498" x2="18.9098" y2="147.2589">
				<stop  offset="0" style="stop-color:#6D6E71"/>
				<stop  offset="0.3204" style="stop-color:#848689"/>
				<stop  offset="0.7453" style="stop-color:#9E9FA2"/>
				<stop  offset="1" style="stop-color:#A7A9AC"/>
			</linearGradient>
			<path fill="url(#SVGID_2_)" d="M45.577,148.218c-0.544-0.594-11.743-9.248-4.136-22.41v-0.005l43.995-72.572
				c3.468-5.796,7.138-6.553,11.057-6.632H60.492c-4.986,0-9.573-0.525-13.857,6.632L2.64,125.803v0.005
				c-7.608,13.162,3.591,21.816,4.135,22.41c3.903,2.864,8.777,2.216,14.575,2.279c10.252,0.112,21.134-0.062,31.65,0.004
				C49.84,150.419,48.001,149.997,45.577,148.218z"/>
			<linearGradient id="SVGID_3_" gradientUnits="userSpaceOnUse" x1="56.585" y1="150.373" x2="56.372" y2="150.6861">
				<stop  offset="0" style="stop-color:#6D6E71"/>
				<stop  offset="0.3204" style="stop-color:#848689"/>
				<stop  offset="0.7453" style="stop-color:#9E9FA2"/>
				<stop  offset="1" style="stop-color:#A7A9AC"/>
			</linearGradient>
			<path fill="url(#SVGID_3_)" d="M56.078,150.517c0.27,0.002,0.55,0.002,0.815,0.006c-0.027-0.004-0.052-0.01-0.079-0.014
				C56.57,150.513,56.318,150.515,56.078,150.517z"/>
		</g>
		<linearGradient id="SVGID_4_" gradientUnits="userSpaceOnUse" x1="121.105" y1="125.2168" x2="81.8429" y2="36.8771">
			<stop  offset="0" style="stop-color:#6D6E71"/>
			<stop  offset="1" style="stop-color:#A7A9AC"/>
		</linearGradient>
		<path fill-rule="evenodd" clip-rule="evenodd" fill="url(#SVGID_4_)" d="M115.963,54.688c-5.229-9.566-12.519-7.979-21.69-8.079
			l-36.847-0.041c4.21,0.685,7.392,1.687,10.955,8.204l30.755,63.766h47.725L115.963,54.688z"/>
		<linearGradient id="SVGID_5_" gradientUnits="userSpaceOnUse" x1="229.5132" y1="-4.6958" x2="151.2949" y2="109.4774">
			<stop  offset="0" style="stop-color:#6D6E71"/>
			<stop  offset="1" style="stop-color:#A7A9AC"/>
		</linearGradient>
		<path fill-rule="evenodd" clip-rule="evenodd" fill="url(#SVGID_5_)" d="M139.063,85.627l15.79,32.745l74.275-107.58
			c4.73-6.497,18.18-9.89,25.714-10.753h-40.396l-9.078-0.01c-4.854,0.315-8.901,1.725-12.182,7.021L139.063,85.627z"/>
		<linearGradient id="SVGID_6_" gradientUnits="userSpaceOnUse" x1="280.0503" y1="68.8652" x2="235.017" y2="-13.1358">
			<stop  offset="0" style="stop-color:#6D6E71"/>
			<stop  offset="1" style="stop-color:#A7A9AC"/>
		</linearGradient>
		<path fill-rule="evenodd" clip-rule="evenodd" fill="url(#SVGID_6_)" d="M268.769,6.021c-5.788-6.5-10.52-5.913-18.224-5.993
			L205.367,0c0.762,0.062,1.474,0.192,2.16,0.365c3.411,0.521,6.4,1.907,9.739,5.657l35.343,42.203l4.328,5.086h51.436L268.769,6.021z
			"/>
		<linearGradient id="SVGID_7_" gradientUnits="userSpaceOnUse" x1="178.2368" y1="209.9941" x2="286.1642" y2="52.4067">
			<stop  offset="0" style="stop-color:#2B3990"/>
			<stop  offset="1" style="stop-color:#00AEEF"/>
		</linearGradient>
		<path fill-rule="evenodd" clip-rule="evenodd" fill="url(#SVGID_7_)" d="M308.75,60.581h-51.88l-85.847,128.468
			c-5.145,7.096-10.449,12.505-18.659,13.438c14.656-0.138,29.312,0.16,43.967,0c9.841-0.094,17.669,1.412,23.278-7.659L308.75,60.581
			z"/>
		<linearGradient id="SVGID_8_" gradientUnits="userSpaceOnUse" x1="129.2046" y1="111.7559" x2="181.3741" y2="222.1143">
			<stop  offset="0" style="stop-color:#2B3990"/>
			<stop  offset="1" style="stop-color:#00AEEF"/>
		</linearGradient>
		<path fill-rule="evenodd" clip-rule="evenodd" fill="url(#SVGID_8_)" d="M102.669,125.808h47.696c0,0,23.881,50.602,34.295,64.953
			c5.149,7.096,12.404,10.793,20.612,11.726c-14.655-0.138-31.296,0.16-45.951,0c-9.845-0.094-17.674,1.412-23.282-7.659
			L102.669,125.808z"/>
	</g>
</svg>
