<svg class="security-icon" id="security-icon" xmlns="http://www.w3.org/2000/svg" viewBox="0 0 120 120">
<g>
	<g>
		<path d="M60.001,34.386c-14.146,0-25.615,11.467-25.615,25.614c0,14.146,11.469,25.614,25.615,25.614
			c14.147,0,25.613-11.468,25.613-25.614C85.614,45.853,74.148,34.386,60.001,34.386z M60.001,78.153
			c-10.106,0-18.328-8.224-18.328-18.326c0-10.106,8.222-18.329,18.328-18.329s18.327,8.223,18.327,18.329
			C78.328,69.93,70.107,78.153,60.001,78.153z"/>
		<path d="M60,43.602c-9.043,0-16.399,7.356-16.399,16.399c0,9.041,7.356,16.397,16.399,16.397s16.399-7.356,16.399-16.397
			C76.399,50.958,69.043,43.602,60,43.602z M60,75.386c-8.366,0-15.172-6.806-15.172-15.172c0-8.363,6.806-15.169,15.172-15.169
			c8.365,0,15.168,6.806,15.168,15.169C75.168,68.58,68.365,75.386,60,75.386z"/>
		<path d="M60.001,46.428c-7.485,0-13.574,6.089-13.574,13.572c0,7.482,6.089,13.572,13.574,13.572
			c7.483,0,13.571-6.09,13.571-13.572C73.572,52.517,67.484,46.428,60.001,46.428z"/>
	</g>
	<polygon points="60.325,28.525 59.675,28.525 59.675,23.966 60.325,23.966 	"/>
	<g>
		<path d="M60.158,19.143v3.619h-0.966v-3.619c-22.31,0.262-40.38,18.481-40.38,40.851c0,22.531,18.33,40.863,40.862,40.863
			s40.863-18.33,40.863-40.863C100.538,37.624,82.467,19.404,60.158,19.143z M59.675,95.617c-19.674,0-35.623-15.949-35.623-35.624
			s15.949-35.622,35.623-35.622c19.675,0,35.623,15.948,35.623,35.622C95.298,79.668,79.35,95.617,59.675,95.617z"/>
		<path d="M60,13.222c-25.834,0-46.779,20.943-46.779,46.778c0,25.836,20.945,46.778,46.779,46.778
			c25.833,0,46.779-20.942,46.779-46.778C106.779,34.165,85.833,13.222,60,13.222z M59.527,102.276
			C36.215,102.276,17.25,83.312,17.25,60c0-23.312,18.965-42.276,42.277-42.276c23.312,0,42.276,18.965,42.276,42.277
			C101.804,83.312,82.839,102.276,59.527,102.276z"/>
	</g>
	<polygon points="60.325,96.034 59.675,96.034 59.675,91.476 60.325,91.476 	"/>
	<polygon points="57.597,26.982 57.413,24.059 58.063,24.017 58.246,26.941 	"/>
	<polygon points="61.937,95.984 61.753,93.059 62.403,93.02 62.587,95.942 	"/>
	<polygon points="55.528,27.198 55.161,24.292 55.806,24.211 56.175,27.117 	"/>
	<polygon points="64.192,95.791 63.824,92.884 64.472,92.802 64.839,95.709 	"/>
	<polygon points="53.477,27.545 52.928,24.666 53.567,24.544 54.117,27.423 	"/>
	<polygon points="66.433,95.457 65.883,92.579 66.521,92.457 67.071,95.334 	"/>
	<polygon points="51.451,28.018 50.723,25.179 51.354,25.017 52.082,27.856 	"/>
	<polygon points="68.647,94.98 67.917,92.144 68.548,91.98 69.278,94.819 	"/>
	<polygon points="49.963,30.167 48.556,25.831 49.176,25.631 50.584,29.965 	"/>
	<polygon points="70.824,94.371 69.416,90.035 70.036,89.834 71.444,94.171 	"/>
	<polygon points="47.511,29.342 46.433,26.616 47.038,26.377 48.117,29.103 	"/>
	<polygon points="72.962,93.623 71.884,90.899 72.489,90.66 73.566,93.385 	"/>
	<polygon points="45.61,30.186 44.363,27.535 44.951,27.257 46.2,29.908 	"/>
	<polygon points="75.048,92.745 73.8,90.092 74.388,89.814 75.636,92.468 	"/>
	<polygon points="43.767,31.149 42.354,28.58 42.926,28.268 44.338,30.836 	"/>
	<polygon points="77.074,91.732 75.662,89.165 76.232,88.851 77.645,91.42 	"/>
	<polygon points="41.987,32.225 40.416,29.751 40.968,29.401 42.537,31.876 	"/>
	<polygon points="79.031,90.6 77.464,88.125 78.013,87.776 79.583,90.251 	"/>
	<polygon points="41.235,34.728 38.556,31.04 39.082,30.657 41.761,34.347 	"/>
	<polygon points="80.915,89.345 78.237,85.655 78.763,85.273 81.441,88.962 	"/>
	<polygon points="38.647,34.702 36.781,32.443 37.281,32.029 39.148,34.287 	"/>
	<polygon points="82.717,87.973 80.849,85.716 81.352,85.301 83.219,87.559 	"/>
	<polygon points="37.101,36.093 35.096,33.957 35.571,33.51 37.576,35.647 	"/>
	<polygon points="84.429,86.489 82.423,84.356 82.898,83.908 84.905,86.045 	"/>
	<polygon points="35.646,37.577 33.51,35.571 33.955,35.097 36.091,37.102 	"/>
	<polygon points="86.044,84.905 83.906,82.897 84.353,82.423 86.49,84.429 	"/>
	<polygon points="34.286,39.15 32.027,37.282 32.442,36.78 34.7,38.649 	"/>
	<polygon points="87.558,83.219 85.3,81.354 85.713,80.852 87.973,82.718 	"/>
	<polygon points="34.344,41.765 30.657,39.086 31.039,38.558 34.727,41.237 	"/>
	<polygon points="88.96,81.445 85.272,78.764 85.656,78.24 89.343,80.919 	"/>
	<polygon points="31.875,42.539 29.401,40.969 29.75,40.418 32.226,41.989 	"/>
	<polygon points="90.25,79.584 87.776,78.013 88.125,77.466 90.6,79.032 	"/>
	<polygon points="30.835,44.34 28.267,42.927 28.579,42.356 31.146,43.768 	"/>
	<polygon points="91.42,77.645 88.852,76.233 89.165,75.663 91.732,77.073 	"/>
	<polygon points="29.908,46.2 27.256,44.953 27.533,44.364 30.185,45.612 	"/>
	<polygon points="92.464,75.638 89.812,74.391 90.09,73.801 92.742,75.05 	"/>
	<polygon points="29.103,48.117 26.378,47.038 26.615,46.433 29.339,47.512 	"/>
	<polygon points="93.385,73.566 90.658,72.488 90.896,71.885 93.624,72.962 	"/>
	<polygon points="29.965,50.585 25.63,49.177 25.831,48.558 30.165,49.965 	"/>
	<polygon points="94.17,71.446 89.835,70.037 90.035,69.417 94.37,70.828 	"/>
	<polygon points="27.856,52.085 25.016,51.354 25.179,50.726 28.017,51.455 	"/>
	<polygon points="94.82,69.279 91.983,68.551 92.146,67.92 94.983,68.648 	"/>
	<polygon points="27.423,54.118 24.543,53.569 24.666,52.93 27.545,53.479 	"/>
	<polygon points="95.334,67.073 92.457,66.523 92.579,65.885 95.456,66.434 	"/>
	<polygon points="27.114,56.176 24.209,55.809 24.292,55.161 27.198,55.529 	"/>
	<polygon points="95.707,64.84 92.802,64.474 92.885,63.825 95.791,64.193 	"/>
	<polygon points="26.94,58.248 24.016,58.063 24.059,57.412 26.981,57.599 	"/>
	<polygon points="95.941,62.588 93.018,62.404 93.058,61.753 95.981,61.938 	"/>
	<polygon points="28.523,60.328 23.966,60.328 23.966,59.675 28.523,59.677 	"/>
	<polygon points="96.034,60.328 91.476,60.328 91.476,59.675 96.034,59.677 	"/>
	<polygon points="24.059,62.588 24.018,61.938 26.941,61.755 26.982,62.406 	"/>
	<polygon points="93.058,58.248 93.018,57.599 95.942,57.413 95.983,58.064 	"/>
	<polygon points="24.292,64.842 24.209,64.194 27.117,63.825 27.198,64.474 	"/>
	<polygon points="92.885,56.176 92.802,55.529 95.707,55.162 95.791,55.81 	"/>
	<polygon points="24.666,67.073 24.543,66.434 27.423,65.885 27.543,66.525 	"/>
	<polygon points="92.579,54.118 92.457,53.479 95.334,52.93 95.456,53.569 	"/>
	<polygon points="25.179,69.279 25.016,68.648 27.856,67.92 28.017,68.551 	"/>
	<polygon points="92.146,52.085 91.983,51.455 94.82,50.726 94.983,51.354 	"/>
	<polygon points="25.831,71.446 25.63,70.828 29.965,69.417 30.165,70.037 	"/>
	<polygon points="90.035,50.585 89.835,49.965 94.17,48.558 94.372,49.178 	"/>
	<polygon points="26.615,73.568 26.378,72.964 29.103,71.887 29.341,72.491 	"/>
	<polygon points="90.899,48.118 90.661,47.513 93.385,46.435 93.624,47.039 	"/>
	<polygon points="27.533,75.638 27.256,75.05 29.909,73.801 30.186,74.391 	"/>
	<polygon points="90.09,46.201 89.812,45.613 92.467,44.365 92.744,44.953 	"/>
	<polygon points="28.58,77.646 28.268,77.075 30.836,75.665 31.147,76.233 	"/>
	<polygon points="89.165,44.341 88.852,43.769 91.42,42.357 91.732,42.928 	"/>
	<polygon points="29.75,79.586 29.401,79.034 31.876,77.466 32.226,78.013 	"/>
	<polygon points="88.125,42.54 87.776,41.989 90.25,40.418 90.6,40.969 	"/>
	<polygon points="31.039,81.445 30.657,80.919 34.346,78.24 34.728,78.767 	"/>
	<polygon points="85.656,41.765 85.275,41.237 88.963,38.559 89.345,39.086 	"/>
	<polygon points="32.443,83.221 32.028,82.72 34.288,80.853 34.701,81.355 	"/>
	<polygon points="85.715,39.151 85.301,38.65 87.558,36.781 87.973,37.283 	"/>
	<polygon points="33.956,84.907 33.512,84.433 35.647,82.425 36.091,82.899 	"/>
	<polygon points="84.354,37.579 83.908,37.104 86.044,35.098 86.49,35.572 	"/>
	<polygon points="35.572,86.492 35.097,86.046 37.102,83.91 37.577,84.356 	"/>
	<polygon points="82.898,36.095 82.423,35.647 84.429,33.512 84.905,33.958 	"/>
	<polygon points="37.281,87.974 36.781,87.559 38.647,85.301 39.149,85.716 	"/>
	<polygon points="81.354,34.702 80.851,34.288 82.717,32.03 83.219,32.444 	"/>
	<polygon points="39.084,89.346 38.557,88.962 41.237,85.273 41.765,85.656 	"/>
	<polygon points="78.765,34.729 78.239,34.347 80.918,30.658 81.443,31.041 	"/>
	<polygon points="40.968,90.602 40.416,90.251 41.988,87.778 42.538,88.127 	"/>
	<polygon points="78.013,32.227 77.464,31.877 79.035,29.403 79.585,29.753 	"/>
	<polygon points="42.927,91.735 42.354,91.423 43.768,88.854 44.339,89.167 	"/>
	<polygon points="76.234,31.15 75.664,30.838 77.074,28.269 77.645,28.581 	"/>
	<polygon points="44.953,92.745 44.365,92.468 45.612,89.815 46.2,90.094 	"/>
	<polygon points="74.391,30.188 73.801,29.911 75.047,27.259 75.637,27.536 	"/>
	<polygon points="47.039,93.626 46.434,93.386 47.513,90.66 48.117,90.899 	"/>
	<polygon points="72.489,29.344 71.884,29.104 72.962,26.379 73.566,26.618 	"/>
	<polygon points="49.176,94.372 48.556,94.171 49.964,89.836 50.586,90.037 	"/>
	<polygon points="70.037,30.168 69.417,29.966 70.828,25.632 71.448,25.833 	"/>
	<polygon points="51.354,94.985 50.724,94.822 51.454,91.982 52.083,92.146 	"/>
	<polygon points="68.55,28.02 67.919,27.857 68.647,25.019 69.278,25.181 	"/>
	<polygon points="53.568,95.458 52.928,95.336 53.479,92.457 54.117,92.58 	"/>
	<polygon points="66.523,27.547 65.884,27.425 66.433,24.545 67.071,24.666 	"/>
	<polygon points="55.808,95.793 55.163,95.711 55.528,92.804 56.176,92.887 	"/>
	<polygon points="64.474,27.2 63.826,27.12 64.193,24.212 64.841,24.293 	"/>
	<polygon points="58.063,95.985 57.415,95.945 57.599,93.02 58.248,93.06 	"/>
	<polygon points="62.404,26.984 61.754,26.944 61.937,24.02 62.587,24.06 	"/>
</g>
</svg>
