<?xml version="1.0" encoding="utf-8"?>
<!-- Generator: Adobe Illustrator 16.0.4, SVG Export Plug-In . SVG Version: 6.00 Build 0)  -->
<!DOCTYPE svg PUBLIC "-//W3C//DTD SVG 1.1//EN" "http://www.w3.org/Graphics/SVG/1.1/DTD/svg11.dtd">
<svg version="1.1" id="Layer_1" xmlns="http://www.w3.org/2000/svg" xmlns:xlink="http://www.w3.org/1999/xlink" x="0px" y="0px"
	 width="150px" height="150px" viewBox="0 0 150 150" enable-background="new 0 0 150 150" xml:space="preserve">
<circle fill="#4A55CC" cx="75" cy="75" r="75"/>
<path fill="#F2F2F2" d="M139.263,76.813c0,0-1.037-1.107-2.153-0.699c-3.69,1.346-19.499,7.249-19.499,7.249l0.899-14.874
	c0,0-3.93-2.052-5.001-0.771c-2.916,3.493-11.266,13.553-11.266,13.553l-12.165-4.369l48.281-27.526c0,0-5.252-2.929-7.829-1.783
	c-1.142,0.507-53.552,21.306-53.552,21.306s-5.919-2.191-8.03-2.754c-1.688-0.449-4.101-0.73-5.489,0.721
	c-0.222,0.23-0.822,0.985-0.822,0.985s-18.268-5.879-24.449-7.508c-3.11-0.82-12.774-3.269-14.693-2.614
	c0,0-1.255,0.341-2.156,0.985c-0.512,0.365-1.433,0.382-2.123,0.437c-0.779,0.062-3.068,0.443-4.076,0.671
	c-1.518,0.345-2.356,0.755-2.88,0.96c-0.522,0.203-1.048,0.695-1.369,1.307s-0.118,1.333,0.483,2.071
	c0.956,0.984,1.859,2.154,3.445,3.344c2.646,1.985,8.742,5.135,13.144,6.879c3.981,1.578,26.671,8.968,31.209,10.22l-2.372,4.27
	c0,0-6.164-1.904-7.082-2.048c-1.758-0.271-3.365-0.407-4.717,0.117c-0.801,0.31-1.616,1.066-2.13,2.001
	c-0.271,0.494-1.253,2.955-0.043,4.924c0.967,1.578,4.883,2.545,7.086,2.911c0.905,0.148,3.876,0.749,3.876,0.749
	s-3.869,9.213-5.064,12.323c-0.543,1.412,5.812,0.586,5.812,0.586l17.851-22.04l33.192,5.722c0,0-3.768,5.577-3.85,5.701
	c-0.742,1.139,2.03,0.84,2.03,0.84l8.255-6.17c0,0,2.945-0.034,5.806-0.067c0.785-0.009,2.024-0.45,2.233-1.742
	c0.166-0.994,0.083-2.043-0.58-2.59C119.3,89.944,139.263,76.813,139.263,76.813z M45.753,91.128
	c-0.388,1.451-1.224,2.486-1.868,2.312c-0.643-0.173-0.852-1.488-0.464-2.938c0.392-1.448,1.226-2.482,1.87-2.312
	C45.936,88.363,46.143,89.68,45.753,91.128z M36.213,62.327l-13.398-3.066l0.825-0.52l3.054,0.439l9.694,2.386L36.213,62.327z
	 M61.814,70.149l-23.966-7.453l0.074-0.775l24.163,7.306L61.814,70.149z M65.643,70.427c-0.383,1.479-1.317,2.502-2.084,2.291
	c-0.77-0.213-1.083-1.584-0.698-3.061c0.382-1.479,1.314-2.504,2.082-2.291C65.714,67.579,66.025,68.95,65.643,70.427z
	 M90.112,79.595v-0.863l20.343,7.621l0.196,0.896L90.112,79.595z"/>
</svg>
