<svg xmlns="http://www.w3.org/2000/svg" style="visibility: hidden; height: 0; width: 0; position: absolute;" class="sprite-sheet">

  <symbol id="logo-standard"  viewBox="0 0 377.582 151">
    <g>
      <g>
        <linearGradient id="SVGID_92_" gradientUnits="userSpaceOnUse" x1="229.8857" y1="78.6855" x2="276.2779" y2="78.6855">
          <stop  offset="0" style="stop-color:#6D6E71"/>
          <stop  offset="1" style="stop-color:#A7A9AC"/>
        </linearGradient>
        <polygon fill-rule="evenodd" clip-rule="evenodd" fill="url(#SVGID_92_)" points="268.859,72.423 228.016,72.423 232.271,84.947
          274.898,84.947      "/>
        <g>
          <linearGradient id="SVGID_93_" gradientUnits="userSpaceOnUse" x1="262.457" y1="36.2158" x2="230.4346" y2="83.2831">
            <stop  offset="0" style="stop-color:#6D6E71"/>
            <stop  offset="0.3204" style="stop-color:#848689"/>
            <stop  offset="0.7453" style="stop-color:#9E9FA2"/>
            <stop  offset="1" style="stop-color:#A7A9AC"/>
          </linearGradient>
          <path fill="url(#SVGID_93_)" d="M243.973,83.77c-0.277-0.302-5.963-4.695-2.1-11.377V72.39l22.336-36.844
            c1.76-2.943,3.623-3.327,5.613-3.367h-18.277c-2.531,0-4.861-0.267-7.035,3.367L222.174,72.39v0.003
            c-3.863,6.682,1.822,11.075,2.1,11.377c1.98,1.454,4.455,1.125,7.398,1.157c5.205,0.057,10.73-0.031,16.068,0.002
            C246.137,84.887,245.203,84.673,243.973,83.77z"/>
          <linearGradient id="SVGID_94_" gradientUnits="userSpaceOnUse" x1="249.5605" y1="84.8633" x2="249.4525" y2="85.0221">
            <stop  offset="0" style="stop-color:#6D6E71"/>
            <stop  offset="0.3204" style="stop-color:#848689"/>
            <stop  offset="0.7453" style="stop-color:#9E9FA2"/>
            <stop  offset="1" style="stop-color:#A7A9AC"/>
          </linearGradient>
          <path fill="url(#SVGID_94_)" d="M249.303,84.937c0.137,0.001,0.279,0.001,0.414,0.003c-0.014-0.002-0.025-0.005-0.039-0.007
            C249.553,84.935,249.426,84.936,249.303,84.937z"/>
        </g>
        <linearGradient id="SVGID_95_" gradientUnits="userSpaceOnUse" x1="282.3174" y1="72.0918" x2="262.3846" y2="27.2429">
          <stop  offset="0" style="stop-color:#6D6E71"/>
          <stop  offset="1" style="stop-color:#A7A9AC"/>
        </linearGradient>
        <path fill-rule="evenodd" clip-rule="evenodd" fill="url(#SVGID_95_)" d="M279.707,36.285c-2.654-4.856-6.355-4.051-11.012-4.102
          l-18.707-0.021c2.137,0.348,3.752,0.856,5.561,4.165l15.615,32.373h24.229L279.707,36.285z"/>
        <linearGradient id="SVGID_96_" gradientUnits="userSpaceOnUse" x1="337.3555" y1="6.1367" x2="297.6447" y2="64.1015">
          <stop  offset="0" style="stop-color:#6D6E71"/>
          <stop  offset="1" style="stop-color:#A7A9AC"/>
        </linearGradient>
        <path fill-rule="evenodd" clip-rule="evenodd" fill="url(#SVGID_96_)" d="M291.434,51.993l8.018,16.624L337.16,14
          c2.4-3.299,9.229-5.021,13.055-5.46h-20.51l-4.607-0.005c-2.465,0.16-4.52,0.876-6.186,3.564L291.434,51.993z"/>
        <linearGradient id="SVGID_97_" gradientUnits="userSpaceOnUse" x1="363.0117" y1="43.4834" x2="340.1487" y2="1.8522">
          <stop  offset="0" style="stop-color:#6D6E71"/>
          <stop  offset="1" style="stop-color:#A7A9AC"/>
        </linearGradient>
        <path fill-rule="evenodd" clip-rule="evenodd" fill="url(#SVGID_97_)" d="M357.285,11.578c-2.939-3.301-5.342-3.002-9.252-3.043
          l-22.938-0.015c0.387,0.031,0.748,0.098,1.098,0.186c1.73,0.265,3.248,0.968,4.943,2.872l17.943,21.426l2.197,2.582h26.113
          L357.285,11.578z"/>
        <linearGradient id="SVGID_98_" gradientUnits="userSpaceOnUse" x1="311.3232" y1="115.1328" x2="366.1169" y2="35.1273">
          <stop  offset="0" style="stop-color:#2B3990"/>
          <stop  offset="1" style="stop-color:#00AEEF"/>
        </linearGradient>
        <path fill-rule="evenodd" clip-rule="evenodd" fill="url(#SVGID_98_)" d="M377.582,39.277h-26.338l-43.584,65.222
          c-2.611,3.603-5.305,6.349-9.473,6.822c7.439-0.07,14.881,0.081,22.32,0c4.996-0.048,8.971,0.717,11.818-3.889L377.582,39.277z"
          />
        <linearGradient id="SVGID_99_" gradientUnits="userSpaceOnUse" x1="286.4297" y1="65.2588" x2="312.9158" y2="121.287">
          <stop  offset="0" style="stop-color:#2B3990"/>
          <stop  offset="1" style="stop-color:#00AEEF"/>
        </linearGradient>
        <path fill-rule="evenodd" clip-rule="evenodd" fill="url(#SVGID_99_)" d="M272.957,72.393h24.215c0,0,12.125,25.689,17.412,32.976
          c2.613,3.603,6.297,5.479,10.465,5.953c-7.441-0.07-15.889,0.081-23.33,0c-4.998-0.048-8.973,0.717-11.82-3.889L272.957,72.393z"
          />
      </g>

        <linearGradient id="SVGID_910_" gradientUnits="userSpaceOnUse" x1="-197.2236" y1="57.5684" x2="-426.8545" y2="186.5398" gradientTransform="matrix(1 0 -0.1763 1 376.6152 0)">
        <stop  offset="0" style="stop-color:#9D9EA1"/>
        <stop  offset="0.0287" style="stop-color:#A3A4A7"/>
        <stop  offset="0.1385" style="stop-color:#B3B5B8"/>
        <stop  offset="0.2753" style="stop-color:#BFC0C3"/>
        <stop  offset="0.4672" style="stop-color:#C5C7CA"/>
        <stop  offset="1" style="stop-color:#C7C9CC"/>
      </linearGradient>
      <path fill="url(#SVGID_910_)" d="M0,143.427h4.76l9.09-51.556H9.092L0,143.427z M50.684,91.871H20.855l-9.094,51.556h4.762
        l3.395-19.236h25.066c6.982,0,12.561-4.65,13.83-11.848l1.52-8.624C61.604,96.522,57.664,91.871,50.684,91.871z M54.129,111.922
        c-0.896,5.077-4.025,7.825-9.102,7.825H20.699l4.133-23.436H49.16c5.076,0,7.236,2.751,6.342,7.825L54.129,111.922z
         M108.691,108.14l0.779-4.421c1.27-7.196-2.67-11.848-9.652-11.848h-19.99c-6.98,0-12.562,4.651-13.832,11.848l-4.912,27.861
        c-1.268,7.192,2.674,11.847,9.654,11.847H90.73c6.98,0,12.559-4.654,13.826-11.847l1.844-10.454H85.777l-0.766,4.334h15.867
        l-1.006,5.697c-0.895,5.077-4.025,7.828-9.1,7.828H72.26c-5.074,0-7.236-2.751-6.34-7.828l4.764-27.021
        c0.896-5.074,4.025-7.825,9.102-7.825h18.512c5.076,0,7.234,2.751,6.34,7.825l-0.707,4.003H108.691z"/>

        <linearGradient id="SVGID_911_" gradientUnits="userSpaceOnUse" x1="-122.8857" y1="59.1338" x2="-241.3638" y2="194.8201" gradientTransform="matrix(1 0 -0.1763 1 376.6152 0)">
        <stop  offset="0" style="stop-color:#2B7BD8"/>
        <stop  offset="0.2717" style="stop-color:#1C8DE0"/>
        <stop  offset="0.7226" style="stop-color:#08A5EB"/>
        <stop  offset="1" style="stop-color:#00AEEF"/>
      </linearGradient>
      <path fill="url(#SVGID_911_)" d="M154.656,91.871h-35.857l-9.092,51.556h12.691l2.795-15.849h23.164
        c6.453,0,12.551-5.184,13.688-11.636l2.191-12.437C165.377,97.054,161.105,91.871,154.656,91.871z M149.838,113.188
        c-0.279,1.589-1.756,2.754-3.342,2.754h-19.252l2.195-12.437h19.25c1.584,0,2.65,1.166,2.371,2.752L149.838,113.188z
         M260.057,91.871l-15.936,20.472l-8.145-20.472h-15.533l14.852,34.541l-3.002,17.015h12.695l3-17.015l27.035-34.541H260.057z
         M208.807,91.871h-24.855c-6.453,0-12.443,5.183-13.582,11.635l-7.037,39.921h12.691l2.795-15.849h22.635l-2.795,15.849h12.695
        l7.037-39.921C219.527,97.054,215.262,91.871,208.807,91.871z M203.508,115.942h-22.635l1.705-9.685
        c0.281-1.586,1.752-2.752,3.34-2.752h16.924c1.588,0,2.652,1.166,2.371,2.752L203.508,115.942z"/>
    </g>
  </symbol>

  <symbol id="logo-type" viewBox="0 0 275.824 67">
    <linearGradient id="SVGID_82_" gradientUnits="userSpaceOnUse" x1="-175.7158" y1="-26.4346" x2="-405.3467" y2="102.5369" gradientTransform="matrix(1 0 -0.1763 1 340.2971 0)">
    <stop  offset="0" style="stop-color:#9D9EA1"/>
    <stop  offset="0.0287" style="stop-color:#A3A4A7"/>
    <stop  offset="0.1385" style="stop-color:#B3B5B8"/>
    <stop  offset="0.2753" style="stop-color:#BFC0C3"/>
    <stop  offset="0.4672" style="stop-color:#C5C7CA"/>
    <stop  offset="1" style="stop-color:#C7C9CC"/>
  </linearGradient>
  <path fill="url(#SVGID_82_)" d="M0,59.426h4.76L13.85,7.87H9.092L0,59.426z M50.684,7.87H20.855l-9.094,51.556h4.762l3.395-19.236
    h25.066c6.982,0,12.561-4.65,13.83-11.848l1.52-8.624C61.604,12.521,57.664,7.87,50.684,7.87z M54.129,27.921
    c-0.896,5.077-4.025,7.825-9.102,7.825H20.699l4.133-23.436H49.16c5.076,0,7.236,2.751,6.342,7.825L54.129,27.921z M108.691,24.139
    l0.779-4.421c1.27-7.196-2.67-11.848-9.652-11.848h-19.99c-6.98,0-12.562,4.651-13.832,11.848l-4.912,27.861
    c-1.268,7.192,2.674,11.847,9.654,11.847H90.73c6.98,0,12.559-4.654,13.826-11.847l1.844-10.454H85.777l-0.766,4.334h15.867
    l-1.006,5.697c-0.895,5.077-4.025,7.828-9.1,7.828H72.26c-5.074,0-7.236-2.751-6.34-7.828l4.764-27.021
    c0.896-5.074,4.025-7.825,9.102-7.825h18.512c5.076,0,7.234,2.751,6.34,7.825l-0.707,4.003H108.691z"/>

    <linearGradient id="SVGID_83_" gradientUnits="userSpaceOnUse" x1="-101.377" y1="-24.8672" x2="-219.855" y2="110.8191" gradientTransform="matrix(1 0 -0.1763 1 340.2971 0)">
    <stop  offset="0" style="stop-color:#2B7BD8"/>
    <stop  offset="0.2717" style="stop-color:#1C8DE0"/>
    <stop  offset="0.7226" style="stop-color:#08A5EB"/>
    <stop  offset="1" style="stop-color:#00AEEF"/>
  </linearGradient>
  <path fill="url(#SVGID_83_)" d="M154.656,7.87h-35.857l-9.092,51.556h12.691l2.795-15.849h23.164
    c6.453,0,12.551-5.184,13.688-11.636l2.191-12.437C165.377,13.053,161.105,7.87,154.656,7.87z M149.838,29.188
    c-0.279,1.589-1.756,2.754-3.342,2.754h-19.252l2.195-12.437h19.25c1.584,0,2.65,1.166,2.371,2.752L149.838,29.188z M260.057,7.87
    l-15.936,20.472L235.977,7.87h-15.533l14.852,34.541l-3.002,17.015h12.695l3-17.015L275.023,7.87H260.057z M208.807,7.87h-24.855
    c-6.453,0-12.443,5.183-13.582,11.635l-7.037,39.921h12.691l2.795-15.849h22.635l-2.795,15.849h12.695l7.037-39.921
    C219.527,13.053,215.262,7.87,208.807,7.87z M203.508,31.941h-22.635l1.705-9.685c0.281-1.586,1.752-2.752,3.34-2.752h16.924
    c1.588,0,2.652,1.166,2.371,2.752L203.508,31.941z"/>
  </symbol>


  <symbol id="icon-element-color"  viewBox="0 0 308.373 202.535">
    <linearGradient id="SVGID_31_" gradientUnits="userSpaceOnUse" x1="17.8301" y1="138.2031" x2="109.2089" y2="138.2031">
      <stop offset="0" style="stop-color:#6D6E71"/>
      <stop offset="1" style="stop-color:#A7A9AC"/>
    </linearGradient>
    <polygon fill-rule="evenodd" clip-rule="evenodd" fill="url(#SVGID_31_)" points="94.597,125.868 14.146,125.868 22.531,150.538 106.492,150.538 "/>
    <g>
      <linearGradient id="SVGID_32_" gradientUnits="userSpaceOnUse" x1="81.9849" y1="54.5498" x2="18.9098" y2="147.2589">
        <stop offset="0" style="stop-color:#6D6E71"/>
        <stop offset="0.3204" style="stop-color:#848689"/>
        <stop offset="0.7453" style="stop-color:#9E9FA2"/>
        <stop offset="1" style="stop-color:#A7A9AC"/>
      </linearGradient>
      <path fill="url(#SVGID_32_)" d="M45.577,148.218c-0.544-0.594-11.743-9.248-4.136-22.41v-0.005l43.995-72.572 c3.468-5.796,7.138-6.553,11.057-6.632H60.492c-4.986,0-9.573-0.525-13.857,6.632L2.64,125.803v0.005 c-7.608,13.162,3.591,21.816,4.135,22.41c3.903,2.864,8.777,2.216,14.575,2.279c10.252,0.112,21.134-0.062,31.65,0.004 C49.84,150.419,48.001,149.997,45.577,148.218z"/>
      <linearGradient id="SVGID_33_" gradientUnits="userSpaceOnUse" x1="56.585" y1="150.373" x2="56.372" y2="150.6861">
        <stop offset="0" style="stop-color:#6D6E71"/>
        <stop offset="0.3204" style="stop-color:#848689"/>
        <stop offset="0.7453" style="stop-color:#9E9FA2"/>
        <stop offset="1" style="stop-color:#A7A9AC"/>
      </linearGradient>
      <path fill="url(#SVGID_33_)" d="M56.078,150.517c0.27,0.002,0.55,0.002,0.815,0.006c-0.027-0.004-0.052-0.01-0.079-0.014 C56.57,150.513,56.318,150.515,56.078,150.517z"/>
    </g>
    <linearGradient id="SVGID_34_" gradientUnits="userSpaceOnUse" x1="121.105" y1="125.2168" x2="81.8429" y2="36.8771">
      <stop offset="0" style="stop-color:#6D6E71"/>
      <stop offset="1" style="stop-color:#A7A9AC"/>
    </linearGradient>
    <path fill-rule="evenodd" clip-rule="evenodd" fill="url(#SVGID_34_)" d="M115.963,54.688c-5.229-9.566-12.519-7.979-21.69-8.079 l-36.847-0.041c4.21,0.685,7.392,1.687,10.955,8.204l30.755,63.766h47.725L115.963,54.688z"/>
    <linearGradient id="SVGID_35_" gradientUnits="userSpaceOnUse" x1="229.5132" y1="-4.6958" x2="151.2949" y2="109.4774">
      <stop offset="0" style="stop-color:#6D6E71"/>
      <stop offset="1" style="stop-color:#A7A9AC"/>
    </linearGradient>
    <path fill-rule="evenodd" clip-rule="evenodd" fill="url(#SVGID_35_)" d="M139.063,85.627l15.79,32.745l74.275-107.58 c4.73-6.497,18.18-9.89,25.714-10.753h-40.396l-9.078-0.01c-4.854,0.315-8.901,1.725-12.182,7.021L139.063,85.627z"/>
    <linearGradient id="SVGID_36_" gradientUnits="userSpaceOnUse" x1="280.0503" y1="68.8652" x2="235.017" y2="-13.1358">
      <stop offset="0" style="stop-color:#6D6E71"/>
      <stop offset="1" style="stop-color:#A7A9AC"/>
    </linearGradient>
    <path fill-rule="evenodd" clip-rule="evenodd" fill="url(#SVGID_36_)" d="M268.769,6.021c-5.788-6.5-10.52-5.913-18.224-5.993 L205.367,0c0.762,0.062,1.474,0.192,2.16,0.365c3.411,0.521,6.4,1.907,9.739,5.657l35.343,42.203l4.328,5.086h51.436L268.769,6.021z "/>
    <linearGradient id="SVGID_37_" gradientUnits="userSpaceOnUse" x1="178.2368" y1="209.9941" x2="286.1642" y2="52.4067">
      <stop offset="0" style="stop-color:#2B3990"/>
      <stop offset="1" style="stop-color:#00AEEF"/>
    </linearGradient>
    <path fill-rule="evenodd" clip-rule="evenodd" fill="url(#SVGID_37_)" d="M308.75,60.581h-51.88l-85.847,128.468 c-5.145,7.096-10.449,12.505-18.659,13.438c14.656-0.138,29.312,0.16,43.967,0c9.841-0.094,17.669,1.412,23.278-7.659L308.75,60.581 z"/>
    <linearGradient id="SVGID_38_" gradientUnits="userSpaceOnUse" x1="129.2046" y1="111.7559" x2="181.3741" y2="222.1143">
      <stop offset="0" style="stop-color:#2B3990"/>
      <stop offset="1" style="stop-color:#00AEEF"/>
    </linearGradient>
    <path fill-rule="evenodd" clip-rule="evenodd" fill="url(#SVGID_38_)" d="M102.669,125.808h47.696c0,0,23.881,50.602,34.295,64.953 c5.149,7.096,12.404,10.793,20.612,11.726c-14.655-0.138-31.296,0.16-45.951,0c-9.845-0.094-17.674,1.412-23.282-7.659 L102.669,125.808z"/>
  </symbol>

  <symbol id="icon-element-grayscale" viewBox="0 0 308.75 202.535">
    <g>
      <linearGradient id="SVGID_41_" gradientUnits="userSpaceOnUse" x1="17.8301" y1="138.2031" x2="109.2089" y2="138.2031">
        <stop offset="0" style="stop-color:#6D6E71"/>
        <stop offset="1" style="stop-color:#A7A9AC"/>
      </linearGradient>
      <polygon fill-rule="evenodd" clip-rule="evenodd" fill="url(#SVGID_41_)" points="94.597,125.868 14.146,125.868 22.531,150.538 106.492,150.538 "/>
      <g>
        <linearGradient id="SVGID_42_" gradientUnits="userSpaceOnUse" x1="81.9849" y1="54.5498" x2="18.9098" y2="147.2589">
          <stop offset="0" style="stop-color:#6D6E71"/>
          <stop offset="0.3204" style="stop-color:#848689"/>
          <stop offset="0.7453" style="stop-color:#9E9FA2"/>
          <stop offset="1" style="stop-color:#A7A9AC"/>
        </linearGradient>
        <path fill="url(#SVGID_42_)" d="M45.577,148.218c-0.544-0.594-11.743-9.248-4.136-22.41v-0.005l43.995-72.572 c3.468-5.796,7.138-6.553,11.057-6.632H60.492c-4.986,0-9.573-0.525-13.857,6.632L2.64,125.803v0.005 c-7.608,13.162,3.591,21.816,4.135,22.41c3.903,2.864,8.777,2.216,14.575,2.279c10.252,0.112,21.134-0.062,31.65,0.004 C49.84,150.419,48.001,149.997,45.577,148.218z"/>
        <linearGradient id="SVGID_43_" gradientUnits="userSpaceOnUse" x1="56.585" y1="150.373" x2="56.372" y2="150.6861">
          <stop offset="0" style="stop-color:#6D6E71"/>
          <stop offset="0.3204" style="stop-color:#848689"/>
          <stop offset="0.7453" style="stop-color:#9E9FA2"/>
          <stop offset="1" style="stop-color:#A7A9AC"/>
        </linearGradient>
        <path fill="url(#SVGID_43_)" d="M56.078,150.517c0.27,0.002,0.55,0.002,0.815,0.006c-0.027-0.004-0.052-0.01-0.079-0.014 C56.57,150.513,56.318,150.515,56.078,150.517z"/>
      </g>
      <linearGradient id="SVGID_44_" gradientUnits="userSpaceOnUse" x1="121.105" y1="125.2168" x2="81.8429" y2="36.8771">
        <stop offset="0" style="stop-color:#6D6E71"/>
        <stop offset="1" style="stop-color:#A7A9AC"/>
      </linearGradient>
      <path fill-rule="evenodd" clip-rule="evenodd" fill="url(#SVGID_44_)" d="M115.963,54.688c-5.229-9.566-12.519-7.979-21.69-8.079 l-36.847-0.041c4.21,0.685,7.392,1.687,10.955,8.204l30.755,63.766h47.725L115.963,54.688z"/>
      <linearGradient id="SVGID_45_" gradientUnits="userSpaceOnUse" x1="229.5132" y1="-4.6958" x2="151.2949" y2="109.4774">
        <stop offset="0" style="stop-color:#6D6E71"/>
        <stop offset="1" style="stop-color:#A7A9AC"/>
      </linearGradient>
      <path fill-rule="evenodd" clip-rule="evenodd" fill="url(#SVGID_45_)" d="M139.063,85.627l15.79,32.745l74.275-107.58 c4.73-6.497,18.18-9.89,25.714-10.753h-40.396l-9.078-0.01c-4.854,0.315-8.901,1.725-12.182,7.021L139.063,85.627z"/>
      <linearGradient id="SVGID_46_" gradientUnits="userSpaceOnUse" x1="280.0503" y1="68.8652" x2="235.017" y2="-13.1358">
        <stop offset="0" style="stop-color:#6D6E71"/>
        <stop offset="1" style="stop-color:#A7A9AC"/>
      </linearGradient>
      <path fill-rule="evenodd" clip-rule="evenodd" fill="url(#SVGID_46_)" d="M268.769,6.021c-5.788-6.5-10.52-5.913-18.224-5.993 L205.367,0c0.762,0.062,1.474,0.192,2.16,0.365c3.411,0.521,6.4,1.907,9.739,5.657l35.343,42.203l4.328,5.086h51.436L268.769,6.021z "/>
      <linearGradient id="SVGID_47_" gradientUnits="userSpaceOnUse" x1="178.2368" y1="209.9941" x2="286.1642" y2="52.4067">
        <stop offset="0" style="stop-color:#3E3E3E"/>
        <stop offset="1" style="stop-color:#818181"/>
      </linearGradient>
      <path fill-rule="evenodd" clip-rule="evenodd" fill="url(#SVGID_47_)" d="M308.75,60.581h-51.88l-85.847,128.468 c-5.145,7.096-10.449,12.505-18.659,13.438c14.656-0.138,29.312,0.16,43.967,0c9.841-0.094,17.669,1.412,23.278-7.659L308.75,60.581 z"/>
      <linearGradient id="SVGID_48_" gradientUnits="userSpaceOnUse" x1="129.2046" y1="111.7559" x2="181.3741" y2="222.1143">
        <stop offset="0" style="stop-color:#3E3E3E"/>
        <stop offset="1" style="stop-color:#818181"/>
      </linearGradient>
      <path fill-rule="evenodd" clip-rule="evenodd" fill="url(#SVGID_48_)" d="M102.669,125.808h47.696c0,0,23.881,50.602,34.295,64.953 c5.149,7.096,12.404,10.793,20.612,11.726c-14.655-0.138-31.296,0.16-45.951,0c-9.845-0.094-17.674,1.412-23.282-7.659 L102.669,125.808z"/>
    </g>
  </symbol>

  <symbol id="credit-cards" viewBox="0 0 415 60">
    <g>
      <g>
        <polygon fill="#999999" points="35.577,40.693 39.212,19.362 45.026,19.362 41.389,40.693     "/>
        <path fill="#999999" d="M62.476,19.887c-1.152-0.433-2.957-0.896-5.211-0.896c-5.745,0-9.792,2.893-9.826,7.039
          c-0.033,3.065,2.889,4.774,5.094,5.796c2.263,1.046,3.024,1.712,3.013,2.646c-0.015,1.43-1.808,2.083-3.479,2.083
          c-2.327,0-3.563-0.323-5.473-1.119l-0.75-0.339l-0.815,4.774c1.357,0.596,3.869,1.111,6.476,1.138
          c6.112,0,10.079-2.859,10.125-7.287c0.022-2.427-1.527-4.273-4.881-5.796c-2.032-0.986-3.277-1.646-3.264-2.645
          c0-0.886,1.053-1.834,3.329-1.834c1.902-0.029,3.279,0.384,4.352,0.816l0.521,0.246L62.476,19.887"/>
        <path fill="#999999" d="M77.385,19.383h-4.493c-1.392,0-2.433,0.38-3.045,1.769l-8.634,19.548h6.105c0,0,0.998-2.628,1.224-3.205
          c0.667,0,6.598,0.01,7.446,0.01c0.174,0.746,0.708,3.195,0.708,3.195h5.395L77.385,19.383 M70.216,33.131
          c0.48-1.229,2.316-5.963,2.316-5.963c-0.034,0.057,0.477-1.235,0.771-2.036l0.393,1.839c0,0,1.113,5.093,1.346,6.16H70.216
          L70.216,33.131z"/>
        <path fill="#999999" d="M30.701,19.377l-5.692,14.547l-0.607-2.956c-1.06-3.408-4.361-7.1-8.052-8.948l5.205,18.655l6.152-0.008
          l9.153-21.29H30.701"/>
        <path fill="#B3B3B3" d="M19.728,19.364h-9.375l-0.074,0.444c7.293,1.766,12.12,6.031,14.124,11.159l-2.039-9.803
          C22.011,19.813,20.991,19.411,19.728,19.364"/>
      </g>
    </g>
    <g id="layer1_2_">
      <g id="g10305_2_">
        <path id="path2268_2_" fill="#E6E6E6" d="M187.418,30c0.003,11.03-8.936,19.974-19.967,19.978
          c-11.031,0.002-19.974-8.938-19.978-19.967c0-0.004,0-0.007,0-0.011c-0.003-11.03,8.937-19.975,19.968-19.978
          c11.03-0.004,19.974,8.938,19.977,19.967C187.418,29.993,187.418,29.996,187.418,30z"/>
        <path id="path1350_2_" fill="#B3B3B3" d="M140.526,10.027c-10.966,0.07-19.844,8.991-19.844,19.973
          c0,11.024,8.947,19.973,19.972,19.973c5.175,0,9.892-1.972,13.44-5.204c-0.001,0-0.001-0.002-0.002-0.002h0.005
          c0.726-0.662,1.404-1.376,2.027-2.139h-4.092c-0.546-0.659-1.043-1.347-1.489-2.058h7.057c0.43-0.686,0.818-1.399,1.163-2.138
          h-9.386c-0.319-0.685-0.597-1.387-0.834-2.098h11.055c0.667-1.991,1.028-4.122,1.028-6.335c0-1.469-0.159-2.899-0.46-4.277
          h-12.209c0.151-0.71,0.342-1.409,0.569-2.098h11.06c-0.248-0.732-0.534-1.447-0.861-2.138h-9.348
          c0.336-0.721,0.719-1.423,1.145-2.099h7.052c-0.469-0.748-0.988-1.461-1.55-2.139h-3.932c0.608-0.716,1.277-1.389,2.004-2.017
          c-3.549-3.234-8.268-5.206-13.443-5.206C140.611,10.027,140.569,10.027,140.526,10.027z"/>
      </g>
      <g id="g16480_2_">
        <g id="g13802_1_" transform="translate(-13.74405,15.9939)">
          <path id="path13804_1_" fill="#B3B3B3" d="M161.027,19.737l0.265-1.809c-0.145,0-0.358,0.062-0.547,0.062
            c-0.741,0-0.833-0.396-0.774-0.684l0.729-3.636h1.125l0.232-2.053h-1.06l0.216-1.243h-2.218
            c-0.047,0.047-1.255,6.992-1.255,7.839c0,1.253,0.703,1.81,1.694,1.8C160.208,20.008,160.813,19.793,161.027,19.737z"/>
          <path id="path13806_1_" fill="#B3B3B3" d="M161.7,16.29c0,3.005,1.984,3.72,3.674,3.72c1.56,0,2.378-0.362,2.378-0.362
            l0.375-2.053c0,0-1.319,0.537-2.39,0.537c-2.284,0-1.884-1.702-1.884-1.702l4.387,0.013c0,0,0.279-1.378,0.279-1.939
            c0-1.4-0.763-3.121-3.098-3.121C163.283,11.383,161.7,13.687,161.7,16.29z M165.43,13.286c1.2,0,0.978,1.349,0.978,1.458h-2.36
            C164.047,14.605,164.27,13.286,165.43,13.286z"/>
          <path id="path13808_1_" fill="#B3B3B3" d="M178.895,19.736l0.381-2.318c0,0-1.045,0.522-1.76,0.522
            c-1.508,0-2.114-1.151-2.114-2.389c0-2.51,1.298-3.892,2.743-3.892c1.084,0,1.953,0.608,1.953,0.608l0.347-2.253
            c0,0-1.026-0.742-2.131-0.745c-3.323-0.013-5.225,2.302-5.225,6.302c0,2.651,1.408,4.456,3.945,4.456
            C177.752,20.028,178.895,19.736,178.895,19.736z"/>
          <path id="path13810_3_" fill="#B3B3B3" d="M149.33,11.415c-1.458,0-2.575,0.47-2.575,0.47l-0.31,1.83
            c0,0,0.923-0.374,2.318-0.374c0.792,0,1.372,0.089,1.372,0.732c0,0.391-0.071,0.534-0.071,0.534s-0.625-0.051-0.914-0.051
            c-2.076,0-3.771,0.783-3.771,3.151c0,1.864,1.268,2.292,2.053,2.292c1.5,0,2.095-0.947,2.129-0.95l-0.018,0.785h1.873
            l0.835-5.854C152.251,11.494,150.083,11.415,149.33,11.415z M149.654,16.17c0.041,0.357-0.092,2.049-1.373,2.049
            c-0.661,0-0.832-0.506-0.832-0.804c0-0.582,0.316-1.28,1.875-1.28C149.686,16.135,149.593,16.161,149.654,16.17z"/>
          <path id="path13812_1_" fill="#B3B3B3" d="M154.241,19.957c0.479,0,3.217,0.122,3.217-2.704c0-2.642-2.534-2.119-2.534-3.182
            c0-0.527,0.413-0.694,1.168-0.694c0.3,0,1.454,0.096,1.454,0.096l0.268-1.877c0,0-0.747-0.168-1.962-0.168
            c-1.573,0-3.17,0.629-3.17,2.778c0,2.434,2.662,2.188,2.662,3.215c0,0.684-0.744,0.741-1.317,0.741
            c-0.992,0-1.885-0.341-1.888-0.325l-0.283,1.859C151.906,19.711,152.458,19.957,154.241,19.957z"/>
          <path id="path13814_1_" fill="#B3B3B3" d="M196.435,9.711l-0.383,2.866c0,0-0.802-1.106-2.054-1.106
            c-2.358,0-3.572,2.35-3.572,5.047c0,1.744,0.867,3.451,2.637,3.451c1.273,0,1.98-0.888,1.98-0.888l-0.094,0.759h2.069
            l1.625-10.111L196.435,9.711z M195.522,15.28c0,1.124-0.557,2.623-1.709,2.623c-0.766,0-1.125-0.643-1.125-1.649
            c0-1.649,0.74-2.737,1.676-2.737C195.129,13.516,195.522,14.041,195.522,15.28z"/>
          <path id="path13816_1_" fill="#B3B3B3" d="M137.817,19.848l1.293-7.635l0.19,7.635h1.466l2.733-7.635l-1.21,7.635h2.176
            l1.677-10.126l-3.458-0.025l-2.057,6.198l-0.057-6.173h-3.169L135.7,19.848H137.817L137.817,19.848z"/>
          <path id="path13818_1_" fill="#B3B3B3" d="M170.58,19.863c0.619-3.521,0.84-6.3,2.645-5.725c0.259-1.362,0.877-2.546,1.159-3.122
            c0,0-0.089-0.134-0.647-0.134c-0.953,0-2.224,1.933-2.224,1.933l0.19-1.195h-1.98l-1.327,8.243H170.58L170.58,19.863z"/>
          <g id="use14699_1_" transform="translate(845.3001,0)">
            <path id="path13810_2_" fill="#B3B3B3" d="M-661.952,11.415c-1.458,0-2.576,0.47-2.576,0.47l-0.308,1.83
              c0,0,0.923-0.374,2.317-0.374c0.792,0,1.372,0.089,1.372,0.732c0,0.391-0.071,0.534-0.071,0.534s-0.624-0.051-0.915-0.051
              c-2.075,0-3.771,0.783-3.771,3.151c0,1.864,1.268,2.292,2.053,2.292c1.5,0,2.094-0.947,2.129-0.95l-0.018,0.785h1.873
              l0.834-5.854C-659.031,11.494-661.199,11.415-661.952,11.415z M-661.627,16.17c0.041,0.357-0.092,2.049-1.374,2.049
              c-0.661,0-0.832-0.506-0.832-0.804c0-0.582,0.316-1.28,1.874-1.28C-661.596,16.135-661.688,16.161-661.627,16.17z"/>
          </g>
          <path id="use14701_1_" fill="#B3B3B3" d="M188.424,19.863c0.34-2.59,0.969-6.225,2.645-5.725
            c0.259-1.362,0.009-1.356-0.548-1.356c-0.954,0-1.164,0.032-1.164,0.032l0.19-1.194h-1.98l-1.326,8.243H188.424L188.424,19.863z"
            />
        </g>
        <g id="g10289_2_">
          <path id="path4157_2_" fill="#FFFFFF" d="M147.836,35.086l0.267-1.809c-0.146,0-0.36,0.063-0.548,0.063
            c-0.74,0-0.822-0.395-0.775-0.686l0.598-3.688h1.125l0.271-1.999h-1.061l0.216-1.244h-2.126c-0.047,0.048-1.255,6.994-1.255,7.84
            c0,1.251,0.703,1.81,1.695,1.8C147.019,35.357,147.624,35.143,147.836,35.086z"/>
          <path id="path4155_2_" fill="#FFFFFF" d="M148.511,31.639c0,3.005,1.983,3.72,3.673,3.72c1.56,0,2.246-0.349,2.246-0.349
            l0.375-2.052c0,0-1.187,0.523-2.258,0.523c-2.283,0-1.882-1.702-1.882-1.702h4.321c0,0,0.278-1.378,0.278-1.94
            c0-1.401-0.698-3.107-3.032-3.107C150.094,26.731,148.511,29.035,148.511,31.639z M152.239,28.636c1.2,0,0.979,1.348,0.979,1.457
            h-2.361C150.857,29.954,151.081,28.636,152.239,28.636z"/>
          <path id="path4151_2_" fill="#FFFFFF" d="M165.706,35.084l0.38-2.318c0,0-1.043,0.523-1.76,0.523
            c-1.508,0-2.113-1.151-2.113-2.389c0-2.512,1.298-3.893,2.742-3.893c1.084,0,1.953,0.608,1.953,0.608l0.348-2.252
            c0,0-1.29-0.521-2.395-0.521c-2.456,0-4.843,2.129-4.843,6.128c0,2.653,1.289,4.404,3.827,4.404
            C164.563,35.375,165.706,35.084,165.706,35.084z"/>
          <path id="path4149_5_" fill="#FFFFFF" d="M136.141,26.764c-1.458,0-2.576,0.469-2.576,0.469l-0.308,1.832
            c0,0,0.922-0.376,2.317-0.376c0.792,0,1.371,0.09,1.371,0.733c0,0.392-0.07,0.535-0.07,0.535s-0.625-0.052-0.915-0.052
            c-1.839,0-3.771,0.784-3.771,3.151c0,1.864,1.268,2.293,2.053,2.293c1.5,0,2.146-0.975,2.181-0.978l-0.07,0.812h1.872
            l0.835-5.856C139.061,26.844,136.894,26.764,136.141,26.764z M136.597,31.531c0.041,0.358-0.225,2.035-1.505,2.035
            c-0.66,0-0.832-0.504-0.832-0.802c0-0.583,0.316-1.281,1.874-1.281C136.496,31.483,136.535,31.522,136.597,31.531z"/>
          <path id="path4145_2_" fill="#FFFFFF" d="M141.051,35.305c0.479,0,3.218,0.123,3.218-2.703c0-2.641-2.536-2.119-2.536-3.18
            c0-0.529,0.414-0.695,1.168-0.695c0.3,0,1.454,0.095,1.454,0.095l0.268-1.878c0,0-0.747-0.167-1.962-0.167
            c-1.574,0-3.171,0.628-3.171,2.777c0,2.435,2.663,2.19,2.663,3.215c0,0.686-0.744,0.741-1.317,0.741
            c-0.991,0-1.885-0.341-1.888-0.324l-0.284,1.858C138.717,35.061,139.268,35.305,141.051,35.305z"/>
          <path id="path4139_2_" fill="#FFFFFF" d="M183.32,25.079l-0.459,2.846c0,0-0.801-1.104-2.053-1.104
            c-1.949,0-3.573,2.349-3.573,5.048c0,1.743,0.867,3.45,2.637,3.45c1.274,0,1.979-0.89,1.979-0.89l-0.093,0.759h2.068
            l1.625-10.112L183.32,25.079z M182.332,30.629c0,1.122-0.556,2.624-1.708,2.624c-0.765,0-1.124-0.644-1.124-1.651
            c0-1.649,0.741-2.737,1.675-2.737C181.94,28.864,182.332,29.391,182.332,30.629z"/>
          <path id="path4133_2_" fill="#FFFFFF" d="M124.627,35.197l1.294-7.635l0.19,7.635h1.465l2.733-7.635l-1.211,7.635h2.177
            l1.676-10.126h-3.366l-2.097,6.212l-0.109-6.212h-3.103l-1.701,10.126H124.627z"/>
          <path id="path4131_5_" fill="#FFFFFF" d="M157.391,35.212c0.619-3.521,0.733-6.379,2.21-5.856
            c0.259-1.362,0.509-1.889,0.79-2.465c0,0-0.132-0.028-0.409-0.028c-0.953,0-1.658,1.301-1.658,1.301l0.189-1.194h-1.979
            l-1.327,8.243H157.391z"/>
          <g id="use8523_2_" transform="translate(847.0062,0)">
            <path id="path4149_4_" fill="#FFFFFF" d="M-676.394,26.764c-1.458,0-2.576,0.469-2.576,0.469l-0.308,1.832
              c0,0,0.923-0.376,2.317-0.376c0.792,0,1.372,0.09,1.372,0.733c0,0.392-0.071,0.535-0.071,0.535s-0.624-0.052-0.914-0.052
              c-1.838,0-3.77,0.784-3.77,3.151c0,1.864,1.267,2.293,2.052,2.293c1.5,0,2.147-0.975,2.182-0.978l-0.07,0.812
              c0,0,1.871,0,1.872,0l0.835-5.856C-673.473,26.844-675.641,26.764-676.394,26.764z M-675.938,31.531
              c0.041,0.358-0.224,2.035-1.505,2.035c-0.66,0-0.832-0.504-0.832-0.802c0-0.583,0.317-1.281,1.875-1.281
              C-676.038,31.483-675.999,31.522-675.938,31.531z"/>
          </g>
          <g id="use8525_2_" transform="translate(442.2857,0)">
            <path id="path4131_4_" fill="#FFFFFF" d="M-267.042,35.212c0.62-3.521,0.734-6.379,2.21-5.856
              c0.259-1.362,0.508-1.889,0.791-2.465c0,0-0.132-0.028-0.41-0.028c-0.953,0-1.658,1.301-1.658,1.301l0.19-1.194h-1.98
              l-1.326,8.243H-267.042z"/>
          </g>
        </g>
      </g>
    </g>
    <g id="Amex_1_">
      <g id="EXPRESS_1_">
        <path fill="#A7A7A7" d="M294.017,35.901c0.457,0.473,0.701,1.068,0.701,2.079c0,2.111-1.319,3.096-3.685,3.096h-4.566v-2.104
          h4.549c0.446,0,0.76-0.059,0.957-0.243c0.162-0.15,0.278-0.371,0.278-0.639c0-0.288-0.125-0.516-0.287-0.65
          c-0.179-0.148-0.426-0.218-0.834-0.218c-2.193-0.075-4.94,0.069-4.94-3.038c0-1.422,0.895-2.921,3.353-2.921h4.702v2.088h-4.303
          c-0.426,0-0.703,0.017-0.938,0.18c-0.257,0.158-0.352,0.395-0.352,0.705c0,0.369,0.217,0.621,0.513,0.731
          c0.247,0.085,0.514,0.109,0.913,0.109l1.262,0.036C292.611,35.144,293.485,35.363,294.017,35.901z"/>
        <path fill="#A7A7A7" d="M303.164,35.875c0.457,0.472,0.701,1.068,0.701,2.079c0,2.11-1.319,3.096-3.683,3.096h-4.568v-2.104h4.55
          c0.445,0,0.76-0.059,0.957-0.243c0.162-0.151,0.277-0.371,0.277-0.64c0-0.287-0.124-0.515-0.287-0.649
          c-0.178-0.149-0.426-0.219-0.834-0.219c-2.192-0.074-4.94,0.069-4.94-3.037c0-1.422,0.896-2.921,3.354-2.921h4.702v2.088h-4.302
          c-0.427,0-0.703,0.016-0.939,0.18c-0.258,0.158-0.354,0.394-0.354,0.704c0,0.37,0.219,0.622,0.514,0.732
          c0.247,0.085,0.514,0.109,0.913,0.109l1.262,0.036C301.759,35.116,302.633,35.337,303.164,35.875z"/>
        <path fill="#A7A7A7" d="M274.272,36.518c0.617-0.245,1.661-1.046,1.661-2.611c0-1.119-0.465-1.731-1.205-2.179
          c-0.769-0.41-1.634-0.464-2.821-0.464h-5.414v9.812h2.357v-3.582h2.505c0.856,0,1.378,0.081,1.721,0.435
          c0.436,0.456,0.379,1.33,0.379,1.921v1.227h2.354v-1.945c-0.01-0.864-0.057-1.312-0.389-1.79
          C275.221,37.056,274.794,36.709,274.272,36.518z M272.855,35.296c-0.313,0.187-0.701,0.201-1.157,0.201h-2.848v-2.204h2.887
          c0.417,0,0.835,0.009,1.118,0.178c0.305,0.16,0.486,0.462,0.486,0.883S273.16,35.111,272.855,35.296z"/>
        <polygon fill="#A7A7A7" points="277.234,31.264 285.062,31.264 285.062,33.293 279.571,33.293 279.571,35.077 284.928,35.077
          284.928,37.078 279.571,37.078 279.571,39.031 285.062,39.04 285.062,41.076 277.234,41.076    "/>
        <path fill="#A7A7A7" d="M261.44,31.264h-7.493l-2.983,3.218l-2.884-3.218h-9.433v9.812h9.289l3-3.247l2.889,3.247h4.558v-3.291
          h2.926c2.051,0,4.084-0.562,4.084-3.288C265.393,31.779,263.301,31.264,261.44,31.264z M246.749,39.031h-5.766v-1.953h5.149
          v-2.001h-5.149v-1.784h5.88l2.564,2.86L246.749,39.031z M256.047,40.184l-3.6-3.996l3.6-3.871V40.184z M261.413,35.793h-3.03v-2.5
          h3.058c0.847,0,1.435,0.347,1.435,1.204C262.875,35.346,262.315,35.793,261.413,35.793z"/>
      </g>
      <g id="AMERICAN_1_">
        <path fill="#A7A7A7" d="M241.354,18.924l-2.82,6.655l-3.068-6.655h-3.827v9.288l-3.988-9.288h-3.483l-4.199,9.811h2.547
          l0.91-2.189h4.882l0.902,2.189h4.769v-7.69l3.408,7.69h2.06l3.401-7.684l0.009,7.684h2.403v-9.811H241.354z M224.259,24.5
          l1.595-3.91l1.605,3.91H224.259z"/>
        <path fill="#A7A7A7" d="M264.232,24.182c0.608-0.244,1.653-1.052,1.653-2.616c0-1.094-0.446-1.734-1.188-2.172
          c-0.757-0.439-1.641-0.47-2.839-0.47h-5.394v9.811h2.346v-3.568h2.517c0.844,0,1.366,0.074,1.709,0.42
          c0.428,0.471,0.371,1.32,0.371,1.911l0.009,1.237h2.364v-1.928c0-0.876-0.057-1.312-0.388-1.8
          C265.184,24.721,264.745,24.376,264.232,24.182z M262.818,22.943c-0.322,0.195-0.704,0.202-1.16,0.202h-2.849v-2.179h2.888
          c0.408,0,0.834,0.018,1.111,0.177c0.306,0.142,0.492,0.446,0.492,0.866C263.301,22.438,263.122,22.785,262.818,22.943z"/>
        <polygon fill="#A7A7A7" points="254.84,28.734 247.006,28.734 247.006,18.924 254.84,18.924 254.84,20.967 249.352,20.967
          249.352,22.734 254.707,22.734 254.707,24.746 249.352,24.746 249.352,26.705 254.84,26.705    "/>
        <rect x="267.245" y="18.924" fill="#A7A7A7" width="2.393" height="9.811"/>
        <path fill="#A7A7A7" d="M294.994,18.924v6.832l-4.12-6.832h-3.572v9.28l-3.97-9.28h-3.515l-3.305,7.716h-1.053
          c-0.618,0-1.272-0.118-1.634-0.507c-0.437-0.496-0.645-1.253-0.645-2.303c0-1.029,0.273-1.81,0.674-2.224
          c0.465-0.453,0.947-0.581,1.804-0.581h2.223v-2.102h-2.27c-1.617,0-2.804,0.36-3.562,1.144c-1.008,1.051-1.264,2.382-1.264,3.836
          c0,1.784,0.428,2.912,1.252,3.746c0.818,0.833,2.26,1.085,3.399,1.085h2.745l0.885-2.189h4.873l0.912,2.189h4.775v-7.363
          l4.444,7.363h3.324v-9.811H294.994z M279.903,24.5l1.615-3.91l1.622,3.91H279.903z"/>
      </g>
    </g>
    <g>
      <path id="path22_1_" fill="#CACACA" d="M397.323,10.491l-15.05-0.004c-0.002,0-0.005,0-0.005,0c-0.011,0-0.021,0.002-0.032,0.002
        c-2.067,0.063-4.644,1.722-5.112,3.767l-7.117,31.491c-0.469,2.062,0.808,3.742,2.859,3.773h15.811
        c2.02-0.101,3.984-1.739,4.446-3.762l7.116-31.49C400.716,12.184,399.409,10.491,397.323,10.491"/>
      <path id="path20_1_" fill="#A9A9A9" d="M370.007,45.747l7.117-31.491c0.469-2.045,3.045-3.703,5.112-3.767l-5.984-0.004
        l-10.781-0.002c-2.072,0.042-4.682,1.712-5.15,3.772l-7.118,31.491c-0.471,2.062,0.807,3.742,2.858,3.773h16.806
        C370.814,49.489,369.538,47.81,370.007,45.747"/>
      <path id="path16_1_" fill="#BBBBBB" d="M353.202,45.747l7.118-31.491c0.469-2.061,3.078-3.73,5.15-3.772l-13.811-0.004
        c-2.084,0-4.757,1.689-5.233,3.776l-7.119,31.491c-0.043,0.191-0.067,0.38-0.082,0.564v0.584c0.14,1.505,1.288,2.6,2.941,2.625
        h13.894C354.009,49.489,352.731,47.81,353.202,45.747"/>
      <path id="path24_1_" fill="#FFFFFF" d="M365.763,33.43h0.261c0.24,0,0.403-0.08,0.478-0.24l0.68-1.017H369l-0.38,0.669h2.18
        l-0.275,1.024h-2.596c-0.299,0.45-0.666,0.66-1.109,0.636h-1.351L365.763,33.43 M365.464,34.897h4.777l-0.304,1.113h-1.922
        l-0.293,1.074h1.869l-0.305,1.112h-1.869l-0.435,1.587c-0.107,0.266,0.034,0.385,0.423,0.356h1.523l-0.283,1.035h-2.925
        c-0.555,0-0.745-0.317-0.571-0.953l0.556-2.025h-1.195l0.304-1.112h1.195l0.293-1.074h-1.143L365.464,34.897z M373.089,32.165
        l-0.075,0.651c0,0,0.902-0.676,1.721-0.676h3.023l-1.156,4.186c-0.096,0.48-0.507,0.718-1.233,0.718h-3.428l-0.803,2.94
        c-0.047,0.156,0.019,0.238,0.191,0.238h0.675l-0.249,0.912h-1.714c-0.659,0-0.932-0.198-0.824-0.595l2.27-8.375H373.089
        L373.089,32.165z M375.651,33.35h-2.699l-0.323,1.13c0,0,0.448-0.325,1.2-0.337c0.749-0.012,1.604,0,1.604,0L375.651,33.35z
         M374.672,35.97c0.201,0.026,0.312-0.052,0.325-0.238l0.165-0.596h-2.703l-0.228,0.834H374.672z M372.849,37.322h1.56l-0.03,0.675
        h0.416c0.209,0,0.313-0.067,0.313-0.199l0.122-0.438h1.295l-0.173,0.637c-0.146,0.53-0.533,0.807-1.165,0.835h-0.829l-0.004,1.152
        c-0.015,0.185,0.151,0.277,0.495,0.277h0.78l-0.252,0.914h-1.87c-0.525,0.024-0.782-0.226-0.777-0.755L372.849,37.322"/>
      <path id="path28_1_" fill="#FFFFFF" d="M353.965,26.587c-0.211,1.036-0.701,1.832-1.461,2.396
        c-0.753,0.555-1.725,0.834-2.915,0.834c-1.119,0-1.938-0.284-2.463-0.855c-0.362-0.405-0.543-0.919-0.543-1.542
        c0-0.259,0.03-0.534,0.091-0.833l1.267-6.11h1.915l-1.25,6.041c-0.039,0.169-0.053,0.323-0.051,0.464
        c-0.002,0.31,0.074,0.562,0.229,0.761c0.227,0.293,0.596,0.439,1.107,0.439c0.588,0,1.073-0.144,1.45-0.434
        c0.376-0.288,0.622-0.697,0.733-1.23l1.253-6.041h1.904L353.965,26.587"/>
      <path id="path34_1_" fill="#FFFFFF" d="M362.003,24.184h1.498l-1.174,5.453h-1.496L362.003,24.184 M362.475,22.197h1.512
        l-0.282,1.323h-1.513L362.475,22.197"/>
      <path id="path36_1_" fill="#FFFFFF" d="M364.828,29.222c-0.392-0.375-0.59-0.88-0.592-1.521c0-0.109,0.007-0.235,0.021-0.371
        c0.015-0.139,0.033-0.273,0.06-0.397c0.177-0.887,0.556-1.59,1.139-2.108c0.582-0.521,1.284-0.782,2.107-0.782
        c0.673,0,1.207,0.189,1.599,0.565c0.391,0.379,0.586,0.891,0.586,1.539c0,0.111-0.008,0.24-0.022,0.378
        c-0.017,0.141-0.038,0.275-0.062,0.408c-0.174,0.872-0.551,1.567-1.135,2.077c-0.582,0.513-1.283,0.768-2.1,0.768
        C365.751,29.776,365.219,29.593,364.828,29.222 M367.685,28.142c0.264-0.286,0.453-0.721,0.568-1.298
        c0.017-0.091,0.032-0.186,0.042-0.279c0.01-0.092,0.014-0.179,0.014-0.257c0-0.338-0.086-0.599-0.257-0.782
        c-0.172-0.188-0.416-0.279-0.729-0.279c-0.416,0-0.754,0.146-1.019,0.438c-0.268,0.293-0.457,0.735-0.575,1.322
        c-0.017,0.091-0.03,0.181-0.043,0.269c-0.009,0.092-0.012,0.176-0.01,0.253c0,0.334,0.085,0.591,0.257,0.773
        c0.171,0.183,0.414,0.273,0.73,0.273C367.081,28.574,367.42,28.43,367.685,28.142"/>
      <path id="path14_1_" fill="#D9D9D9" d="M382.269,10.487l-6.017-0.002l5.984,0.004C382.247,10.489,382.258,10.487,382.269,10.487"/>
      <path id="path18_1_" fill="#BDBDBD" d="M376.252,10.485l-10.698-0.006c-0.026,0-0.055,0.002-0.083,0.004L376.252,10.485"/>
      <path id="path26_1_" fill="#FFFFFF" d="M379.472,33.477l0.361-1.272h1.828l-0.079,0.466c0,0,0.934-0.466,1.606-0.466s2.26,0,2.26,0
        l-0.36,1.272h-0.354l-1.705,5.999h0.356l-0.338,1.191h-0.356l-0.147,0.516h-1.77l0.147-0.516h-3.492l0.341-1.191h0.351l1.706-5.999
        H379.472 M381.443,33.477l-0.464,1.623c0,0,0.795-0.306,1.48-0.393c0.152-0.566,0.351-1.23,0.351-1.23H381.443z M380.764,35.86
        l-0.467,1.7c0,0,0.882-0.434,1.486-0.471c0.176-0.656,0.351-1.229,0.351-1.229H380.764z M381.105,39.476l0.35-1.234h-1.363
        l-0.352,1.234H381.105z M385.524,32.125h1.719l0.072,0.634c-0.012,0.162,0.085,0.239,0.288,0.239h0.303l-0.306,1.074h-1.263
        c-0.482,0.024-0.73-0.159-0.753-0.558L385.524,32.125z M385.021,34.43h5.565l-0.328,1.152h-1.771l-0.304,1.072h1.771l-0.329,1.151
        h-1.972l-0.445,0.674h0.965l0.224,1.351c0.026,0.135,0.145,0.201,0.349,0.201h0.3l-0.314,1.111h-1.061
        c-0.55,0.027-0.835-0.157-0.857-0.555l-0.255-1.234l-0.879,1.313c-0.208,0.37-0.526,0.542-0.956,0.516h-1.621l0.315-1.112h0.506
        c0.208,0,0.38-0.092,0.535-0.279l1.375-1.985h-1.771l0.327-1.151h1.923l0.306-1.072h-1.924L385.021,34.43"/>
      <path id="path30_1_" fill="#FFFFFF" d="M355.727,24.182h1.354l-0.155,0.788l0.195-0.225c0.438-0.47,0.969-0.702,1.599-0.702
        c0.567,0,0.978,0.165,1.235,0.498c0.254,0.333,0.322,0.792,0.202,1.382l-0.743,3.716h-1.39l0.672-3.368
        c0.069-0.348,0.051-0.606-0.056-0.773c-0.106-0.169-0.309-0.251-0.599-0.251c-0.358,0-0.658,0.111-0.903,0.332
        c-0.247,0.224-0.408,0.532-0.489,0.927l-0.62,3.134h-1.391L355.727,24.182"/>
      <path id="path32_1_" fill="#FFFFFF" d="M371.229,24.182h1.352l-0.152,0.788l0.191-0.225c0.438-0.47,0.973-0.702,1.6-0.702
        c0.567,0,0.979,0.165,1.234,0.498c0.253,0.333,0.325,0.792,0.202,1.382l-0.742,3.716h-1.391l0.673-3.368
        c0.068-0.348,0.05-0.606-0.056-0.773c-0.11-0.169-0.309-0.251-0.598-0.251c-0.357,0-0.658,0.111-0.905,0.332
        c-0.247,0.224-0.408,0.532-0.486,0.927l-0.623,3.134h-1.39L371.229,24.182"/>
      <path id="path38_1_" fill="#FFFFFF" d="M377.916,20.8h3.927c0.756,0,1.34,0.172,1.742,0.507c0.399,0.341,0.6,0.828,0.6,1.465v0.019
        c0,0.121-0.008,0.259-0.021,0.406c-0.02,0.146-0.044,0.293-0.076,0.447c-0.173,0.841-0.575,1.518-1.196,2.03
        c-0.623,0.512-1.358,0.771-2.208,0.771h-2.107l-0.65,3.194h-1.823L377.916,20.8 M378.897,24.906h1.746
        c0.456,0,0.816-0.105,1.081-0.315c0.261-0.212,0.435-0.534,0.53-0.972c0.014-0.082,0.023-0.153,0.036-0.222
        c0.006-0.063,0.013-0.127,0.013-0.188c0-0.313-0.11-0.539-0.334-0.682c-0.223-0.145-0.571-0.214-1.057-0.214h-1.484L378.897,24.906
        "/>
      <path id="path40_1_" fill="#FFFFFF" d="M392.346,30.694c-0.576,1.225-1.125,1.939-1.447,2.272
        c-0.324,0.329-0.964,1.094-2.505,1.036l0.133-0.937c1.297-0.399,1.997-2.2,2.398-2.997l-0.477-5.872l1.002-0.014h0.843l0.09,3.685
        l1.577-3.685h1.597L392.346,30.694"/>
      <path id="path42_1_" fill="#FFFFFF" d="M387.881,24.628l-0.635,0.436c-0.662-0.52-1.269-0.84-2.436-0.297
        c-1.592,0.736-2.921,6.396,1.46,4.531l0.25,0.297l1.724,0.044l1.132-5.142L387.881,24.628 M386.9,27.438
        c-0.276,0.816-0.896,1.356-1.379,1.203c-0.484-0.15-0.658-0.938-0.377-1.756c0.276-0.819,0.899-1.357,1.379-1.203
        C387.009,25.832,387.184,26.62,386.9,27.438"/>
    </g>
  </symbol>

  <symbol id="icon__callout--features" viewBox="0 0 120 120">
    <circle cx="99.275" cy="27.327" r="0.914"/>
    <circle cx="102.015" cy="27.327" r="0.914"/>
    <circle cx="104.759" cy="27.327" r="0.914"/>
    <path fill="none" d="M104.507,33.792c-0.021,0.015-0.03,0.034-0.024,0.061c0.003,0.024,0.021,0.042,0.045,0.052l1.08,0.369 c0.021,0.007,0.04,0.003,0.061-0.01c0.018-0.013,0.023-0.03,0.023-0.053l-0.002-1.139c0-0.024-0.012-0.044-0.034-0.058 c-0.026-0.011-0.048-0.009-0.068,0.006l-0.254,0.181l-0.02,0.017c-0.139-0.137-0.296-0.246-0.477-0.325 c-0.183-0.077-0.376-0.118-0.584-0.118c-0.207,0-0.403,0.041-0.585,0.118c-0.184,0.079-0.343,0.188-0.479,0.323 c-0.137,0.137-0.244,0.296-0.322,0.479c-0.08,0.184-0.119,0.38-0.119,0.586c0,0.207,0.039,0.402,0.119,0.586 c0.078,0.183,0.186,0.343,0.322,0.479c0.136,0.137,0.295,0.244,0.479,0.323c0.182,0.079,0.378,0.119,0.585,0.119 c0.126,0,0.247-0.015,0.367-0.047c0.119-0.029,0.234-0.072,0.341-0.129c0.106-0.059,0.205-0.127,0.298-0.209 c0.091-0.082,0.173-0.177,0.244-0.281c0.014-0.02,0.016-0.037,0.01-0.056c-0.005-0.023-0.013-0.039-0.03-0.046l-0.377-0.266 c-0.018-0.011-0.036-0.016-0.06-0.011c-0.023,0.002-0.041,0.016-0.055,0.034c-0.08,0.125-0.188,0.222-0.316,0.29 c-0.131,0.068-0.272,0.103-0.423,0.103c-0.121,0-0.237-0.024-0.343-0.07c-0.11-0.047-0.204-0.111-0.285-0.191 c-0.08-0.081-0.145-0.175-0.191-0.282c-0.047-0.108-0.07-0.224-0.07-0.346s0.023-0.236,0.07-0.346 c0.047-0.108,0.111-0.201,0.191-0.282c0.08-0.08,0.175-0.144,0.285-0.19c0.106-0.047,0.222-0.071,0.343-0.071 c0.106,0,0.203,0.017,0.297,0.051c0.095,0.033,0.177,0.08,0.253,0.14l-0.043,0.033L104.507,33.792z"/>
    <g>
      <polygon fill="none" points="24.299,35.787 24.299,34.281 24.828,34.281 23.192,32.772 21.557,34.281 22.083,34.281 22.083,35.787 22.903,35.787 22.903,34.93 23.462,34.93 23.462,35.787 "/>
      <polygon fill="none" points="12.293,59.458 12.974,59.458 19.28,54.451 23.193,57.224 28.805,54.451 33.442,55.973 40.099,48.966 44.668,55.669 49.343,54.482 52.39,57.878 61.073,56.735 67.929,51.402 74.57,55.364 81.008,54.482 85.868,51.098 90.779,48.966 94.892,52.347 99.727,47.747 104.219,50.337 107.705,44.695 107.705,38.387 12.293,38.387"/>
      <polygon fill="none" points="13.841,34.354 15.387,35.703 15.387,35.103 16.615,35.103 16.615,33.606 15.387,33.606 15.387,33.005"/>
      <path fill="none" d="M12.293,94.9c0,0.412,0.335,0.748,0.745,0.748h93.919c0.411,0,0.746-0.336,0.746-0.748V60.538h-95.41V94.9z M16.594,71.506h2.743v1.025h-2.743V71.506z M16.594,73.332h28.074v1.027H16.594V73.332z M16.594,75.16h28.074v1.027H16.594V75.16 z M16.594,78.93h2.743v1.027h-2.743V78.93z M16.594,80.758h28.074v1.027H16.594V80.758z M16.594,82.584h28.074v1.027H16.594 V82.584z"/>
      <polygon fill="none" points="20.723,34.353 19.178,33.005 19.178,33.604 17.951,33.604 17.951,35.101 19.178,35.101 19.178,35.703"/>
      <path fill="none" d="M106.959,24.352H13.04c-0.41,0-0.744,0.334-0.744,0.745v5.205h95.41v-5.205 C107.705,24.686,107.369,24.352,106.959,24.352z"/>
      <path fill="none" d="M104.507,33.792c-0.021,0.015-0.03,0.034-0.024,0.061c0.003,0.024,0.021,0.042,0.045,0.052l1.08,0.369 c0.021,0.007,0.04,0.003,0.061-0.01c0.018-0.013,0.023-0.03,0.023-0.053l-0.002-1.139c0-0.024-0.012-0.044-0.034-0.058 c-0.026-0.011-0.048-0.009-0.068,0.006l-0.254,0.181l-0.02,0.017c-0.139-0.137-0.296-0.246-0.477-0.325 c-0.183-0.077-0.376-0.118-0.584-0.118c-0.207,0-0.403,0.041-0.585,0.118c-0.184,0.079-0.343,0.188-0.479,0.323 c-0.137,0.137-0.244,0.296-0.322,0.479c-0.08,0.184-0.119,0.38-0.119,0.586c0,0.207,0.039,0.402,0.119,0.586 c0.078,0.183,0.186,0.343,0.322,0.479c0.136,0.137,0.295,0.244,0.479,0.323c0.182,0.079,0.378,0.119,0.585,0.119 c0.126,0,0.247-0.015,0.367-0.047c0.119-0.029,0.234-0.072,0.341-0.129c0.106-0.059,0.205-0.127,0.298-0.209 c0.091-0.082,0.173-0.177,0.244-0.281c0.014-0.02,0.016-0.037,0.01-0.056c-0.005-0.023-0.013-0.039-0.03-0.046l-0.377-0.266 c-0.018-0.011-0.036-0.016-0.06-0.011c-0.023,0.002-0.041,0.016-0.055,0.034c-0.08,0.125-0.188,0.222-0.316,0.29 c-0.131,0.068-0.272,0.103-0.423,0.103c-0.121,0-0.237-0.024-0.343-0.07c-0.11-0.047-0.204-0.111-0.285-0.191 c-0.08-0.081-0.145-0.175-0.191-0.282c-0.047-0.108-0.07-0.224-0.07-0.346s0.023-0.236,0.07-0.346 c0.047-0.108,0.111-0.201,0.191-0.282c0.08-0.08,0.175-0.144,0.285-0.19c0.106-0.047,0.222-0.071,0.343-0.071 c0.106,0,0.203,0.017,0.297,0.051c0.095,0.033,0.177,0.08,0.253,0.14l-0.043,0.033L104.507,33.792z"/>
      <path fill="none" d="M100.557,35.979c0.199,0,0.361-0.163,0.361-0.363v-2.48c0-0.2-0.162-0.363-0.361-0.363H26.77 c-0.199,0-0.361,0.165-0.361,0.363v2.48c0,0.2,0.162,0.363,0.361,0.363H100.557z"/>
      <rect x="16.594" y="71.506" width="2.743" height="1.025"/>
      <rect x="16.594" y="73.332" width="28.074" height="1.027"/>
      <rect x="16.594" y="75.16" width="28.074" height="1.027"/>
      <rect x="16.594" y="78.93" width="2.743" height="1.027"/>
      <rect x="16.594" y="80.758" width="28.074" height="1.027"/>
      <rect x="16.594" y="82.584" width="28.074" height="1.027"/>
      <path d="M106.959,23.456H13.04c-0.903,0-1.64,0.737-1.64,1.642V94.9c0,0.908,0.736,1.645,1.64,1.645h93.92 c0.905,0,1.641-0.736,1.641-1.645V25.097C108.599,24.193,107.865,23.456,106.959,23.456z M107.705,94.9 c0,0.412-0.336,0.748-0.745,0.748H13.04c-0.41,0-0.744-0.336-0.744-0.748V60.538h95.41L107.705,94.9L107.705,94.9z M107.705,44.695l-3.485,5.643l-4.492-2.589l-4.836,4.599l-4.113-3.379l-4.91,2.133l-4.859,3.383l-6.44,0.882l-6.64-3.96 l-6.855,5.331l-8.685,1.144l-3.046-3.396l-4.676,1.186l-4.569-6.701l-6.657,7.006l-4.637-1.523l-5.612,2.774l-3.914-2.774 l-6.305,5.01h-0.679V38.387h95.411V44.695z M16.615,33.606v1.495h-1.228v0.602l-1.546-1.35l1.546-1.349v0.602H16.615z M17.951,35.101v-1.495h1.228v-0.601l1.545,1.349l-1.545,1.35v-0.603H17.951z M22.903,34.93v0.856h-0.818v-1.506h-0.527 l1.635-1.509l1.636,1.509h-0.528v1.506h-0.837V34.93H22.903z M26.409,35.616v-2.48c0-0.2,0.162-0.363,0.361-0.363h73.787 c0.199,0,0.361,0.165,0.361,0.363v2.48c0,0.2-0.162,0.363-0.361,0.363H26.77C26.571,35.979,26.409,35.816,26.409,35.616z M104.551,33.439c-0.096-0.033-0.192-0.049-0.298-0.049c-0.12,0-0.237,0.023-0.344,0.069c-0.109,0.048-0.202,0.112-0.283,0.191 c-0.082,0.081-0.146,0.175-0.192,0.283c-0.047,0.109-0.068,0.224-0.068,0.345c0,0.122,0.021,0.235,0.068,0.346 c0.047,0.108,0.11,0.202,0.192,0.282c0.079,0.08,0.174,0.144,0.283,0.192c0.107,0.046,0.224,0.069,0.344,0.069 c0.149,0,0.291-0.035,0.422-0.104c0.131-0.067,0.237-0.164,0.318-0.289c0.013-0.019,0.029-0.031,0.054-0.035 c0.022-0.005,0.042,0,0.06,0.013l0.378,0.264c0.018,0.009,0.024,0.023,0.029,0.048c0.007,0.018,0.003,0.036-0.01,0.055 c-0.069,0.104-0.152,0.198-0.245,0.281c-0.091,0.083-0.191,0.151-0.297,0.209c-0.107,0.057-0.222,0.1-0.342,0.13 c-0.118,0.03-0.24,0.045-0.366,0.045c-0.206,0-0.401-0.039-0.585-0.118s-0.342-0.187-0.479-0.323 c-0.135-0.136-0.243-0.296-0.322-0.479c-0.08-0.184-0.118-0.379-0.118-0.586s0.038-0.403,0.118-0.586 c0.079-0.183,0.188-0.343,0.322-0.478c0.138-0.137,0.296-0.245,0.479-0.323c0.184-0.08,0.379-0.12,0.585-0.12 c0.208,0,0.402,0.04,0.584,0.12c0.181,0.078,0.339,0.187,0.478,0.323l0.019-0.016l0.254-0.181c0.02-0.015,0.041-0.017,0.067-0.006 c0.023,0.015,0.035,0.033,0.035,0.057l0.002,1.141c0,0.021-0.007,0.038-0.024,0.052c-0.02,0.013-0.038,0.017-0.061,0.01 l-1.08-0.369c-0.023-0.009-0.04-0.026-0.045-0.053c-0.005-0.025,0.005-0.044,0.025-0.062l0.254-0.179l0.042-0.032 C104.728,33.519,104.645,33.471,104.551,33.439z M107.705,30.302H12.293v-5.205c0-0.411,0.335-0.745,0.745-0.745h93.919 c0.411,0,0.746,0.334,0.746,0.745L107.705,30.302L107.705,30.302z"/>
    </g>
    <path d="M89.311,77.457V67.373c-5.521,0.123-9.961,4.629-9.961,10.182c0,2.729,1.081,5.203,2.831,7.033L89.311,77.457z"/>
    <path d="M89.541,87.742c5.628,0,10.188-4.561,10.188-10.188c0-5.553-4.439-10.059-9.961-10.182v10.182 c0,0.062-0.025,0.117-0.067,0.16l-7.197,7.197C84.333,86.662,86.807,87.742,89.541,87.742z"/>
  </symbol>

  <symbol id="icon__callout--integration" viewBox="0 0 120 120">
    <path d="M64.795,88.293c-1.564,0-2.838,1.272-2.838,2.833c0,1.566,1.271,2.836,2.838,2.836c1.562,0,2.834-1.269,2.834-2.836 C67.629,89.565,66.357,88.293,64.795,88.293z"/>
    <path d="M92.43,88.293c-1.564,0-2.836,1.272-2.836,2.833c0,1.566,1.271,2.836,2.836,2.836c1.562,0,2.836-1.269,2.836-2.836 C95.266,89.565,93.992,88.293,92.43,88.293z"/>
    <circle cx="64.795" cy="71.003" r="2.835"/>
    <path d="M110.475,66.332c-1.562,0-2.836,1.272-2.836,2.835c0,1.566,1.271,2.838,2.836,2.838c1.562,0,2.836-1.271,2.836-2.838 C113.311,67.604,112.037,66.332,110.475,66.332z"/>
    <path d="M110.475,64.143c-1.828,0-3.428,0.983-4.305,2.447L85.498,55.171l3.379-2.62c0.908,0.911,2.166,1.474,3.553,1.474 c2.77,0,5.023-2.254,5.023-5.025c0-2.77-2.254-5.026-5.023-5.026c-1.453,0-2.764,0.626-3.684,1.618L69.125,31.409 c0.439-0.744,0.693-1.61,0.693-2.535c0-2.771-2.252-5.025-5.023-5.025c-2.77,0-5.028,2.255-5.028,5.025 c0,0.362,0.04,0.713,0.115,1.055l-9.185,3.381l-8.692-3.124c0.112-0.419,0.179-0.857,0.179-1.312c0-2.771-2.255-5.025-5.024-5.025 c-2.771,0-5.026,2.255-5.026,5.025c0,0.854,0.215,1.657,0.592,2.361L13.171,45.553c-0.918-0.971-2.212-1.58-3.648-1.58 c-2.77,0-5.024,2.255-5.024,5.026s2.255,5.025,5.024,5.025c1.41,0,2.687-0.585,3.599-1.525l19.61,14.25 c-0.382,0.707-0.599,1.517-0.599,2.376c0,2.771,2.255,5.025,5.026,5.025c1.324,0,2.526-0.521,3.424-1.36L60.44,88.63 c-0.424,0.738-0.671,1.588-0.671,2.496c0,2.772,2.256,5.025,5.026,5.025c2.773,0,5.023-2.253,5.023-5.025 c0-0.588-0.107-1.15-0.293-1.676L81.617,83.6l6.633,4.745c-0.535,0.799-0.846,1.754-0.846,2.781c0,2.772,2.254,5.025,5.025,5.025 c2.77,0,5.023-2.253,5.023-5.025c0-2.771-2.254-5.022-5.023-5.022c-0.551,0-1.078,0.09-1.57,0.254l-2.672-5.934l17.969-8.695 c0.879,1.472,2.48,2.465,4.318,2.465c2.771,0,5.027-2.255,5.027-5.026C115.502,66.397,113.246,64.143,110.475,64.143z M105.836,67.24c-0.234,0.56-0.367,1.17-0.381,1.809l-22.016,0.825l-4.375-9.72l5.805-4.496L105.836,67.24z M60.498,71.003 c0-2.371,1.924-4.294,4.297-4.294c2.371,0,4.291,1.923,4.291,4.294c0,2.374-1.92,4.297-4.291,4.297 C62.422,75.3,60.498,73.377,60.498,71.003z M42.176,69.291c0.002-0.056,0.008-0.11,0.008-0.166c0-0.481-0.072-0.947-0.2-1.389 l7.012-2.512l10.988,4.322c-0.071,0.247-0.126,0.5-0.163,0.761L42.176,69.291z M37.169,60.578l4.04,1.587l-1.705,2.516 c-0.697-0.369-1.492-0.583-2.335-0.583V60.578z M37.164,33.899c1.089,0,2.097-0.353,2.92-0.947l2.868,3.21l-5.787,2.132 L37.164,33.899z M69.779,70.386c-0.107-0.86-0.434-1.655-0.92-2.326l1.527-1.181l3.012,3.374L69.779,70.386z M68.391,67.499 c-0.895-0.916-2.133-1.492-3.506-1.517l-0.023-5.29l5.037,5.64L68.391,67.499z M64.809,49.462l8.645,0.008l2.414,5.357 l-11.016,3.944L64.809,49.462z M64.121,58.77l-8.32-9.316l8.279,0.007L64.121,58.77z M64.805,48.73l-0.02-4.166l7.557,4.175 L64.805,48.73z M64.076,48.73l-8.928-0.009l-2.246-2.515l4.048-5.973l7.107,3.925L64.076,48.73z M54.167,48.722l-2.966-0.005 l1.278-1.886L54.167,48.722z M54.821,49.45l8.738,9.786l-14.551,5.213l-6.682-2.629l8.383-12.372L54.821,49.45z M64.086,59.822 l0.041,0.049l0.027,6.151c-1.729,0.223-3.185,1.323-3.9,2.842L50.04,64.852L64.086,59.822z M64.855,59.591v-0.045l11.312-4.051 l1.996,4.435l-7.688,5.953L64.855,59.591z M76.857,55.248l4.41-1.58l2.906,1.605l-5.418,4.196L76.857,55.248z M76.557,54.58 l-2.105-4.678l5.965,3.296L76.557,54.58z M75.178,49.471l12.25,0.014c0.037,0.386,0.123,0.758,0.242,1.114l-6.338,2.271 L75.178,49.471z M73.926,48.739l-3.383-7.522l17.137,6.158c-0.15,0.438-0.238,0.898-0.264,1.379L73.926,48.739z M72.887,48.205 l-8.105-4.476l-0.021-4.589l4.826,1.735L72.887,48.205z M64.758,38.363l-0.021-4.466c0.02,0,0.039,0.002,0.059,0.002 c0.537,0,1.057-0.088,1.541-0.245l2.834,6.294L64.758,38.363z M64.027,38.101L59.5,36.472l2.38-3.512 c0.619,0.443,1.344,0.748,2.129,0.872L64.027,38.101z M64.033,38.877l0.021,4.449l-6.692-3.697l1.714-2.531L64.033,38.877z M56.718,39.275l-8.04-4.442l2.023-0.745l7.666,2.753L56.718,39.275z M56.308,39.88l-3.906,5.768l-8.193-9.171l3.563-1.312 L56.308,39.88z M43.686,35.891l-3.042-3.404c0.271-0.26,0.512-0.548,0.718-0.862l5.566,3.076L43.686,35.891z M43.473,36.748 l8.505,9.523l-1.657,2.445l-13.154-0.014l-0.002-9.633L43.473,36.748z M36.437,48.703l-21.904-0.021 c-0.026-0.414-0.098-0.815-0.218-1.198l22.121-8.145L36.437,48.703z M36.437,49.433l0.002,10.074l-22.22-8.733 c0.162-0.43,0.269-0.886,0.308-1.362L36.437,49.433z M37.167,49.434l12.66,0.013l-8.197,12.101l-4.46-1.754L37.167,49.434z M41.905,62.438l6.06,2.382l-6.232,2.232c-0.359-0.791-0.917-1.47-1.612-1.981L41.905,62.438z M69.814,71.113l4.217-0.157 l9.67,10.826l-2.012,0.972l-12.66-9.059C69.508,72.945,69.793,72.062,69.814,71.113z M74.977,70.92l7.998-0.3l4.256,9.453 l-2.848,1.376L74.977,70.92z M74.348,70.216l-3.383-3.787l7.506-5.813l4.182,9.288L74.348,70.216z M82.184,53.339l5.77-2.066 c0.129,0.255,0.281,0.496,0.451,0.724l-3.604,2.79L82.184,53.339z M92.43,44.703c2.371,0,4.297,1.925,4.297,4.297 c0,2.373-1.926,4.296-4.297,4.296c-2.373,0-4.295-1.923-4.295-4.296C88.135,46.626,90.057,44.703,92.43,44.703z M88.289,46.159 c-0.121,0.173-0.227,0.354-0.326,0.543l-17.838-6.411l-3.111-6.914c0.662-0.328,1.242-0.795,1.699-1.365L88.289,46.159z M60.498,28.874c0-2.371,1.924-4.295,4.297-4.295c2.371,0,4.291,1.924,4.291,4.295c0,2.372-1.92,4.296-4.291,4.296 C62.422,33.17,60.498,31.246,60.498,28.874z M60.089,30.63c0.268,0.712,0.689,1.347,1.225,1.862l-2.525,3.727l-7.022-2.523 L60.089,30.63z M49.631,33.701l-1.799,0.665l-6.119-3.381c0.017-0.038,0.037-0.073,0.052-0.11L49.631,33.701z M32.863,28.874 c0-2.371,1.924-4.295,4.295-4.295c2.374,0,4.296,1.924,4.296,4.295c0,2.372-1.922,4.296-4.296,4.296 C34.787,33.17,32.863,31.246,32.863,28.874z M33.12,31.854c0.78,1.054,1.959,1.792,3.314,1.989v4.719L14.04,46.808 c-0.119-0.24-0.251-0.471-0.406-0.689L33.12,31.854z M9.523,53.296c-2.372,0-4.295-1.923-4.295-4.296 c0-2.372,1.923-4.297,4.295-4.297c2.373,0,4.296,1.925,4.296,4.297S11.896,53.296,9.523,53.296z M13.59,51.938 c0.118-0.162,0.228-0.326,0.324-0.503l22.525,8.854v3.866c-1.353,0.196-2.53,0.929-3.312,1.979L13.59,51.938z M37.16,73.421 c-2.373,0-4.296-1.925-4.296-4.295c0-2.373,1.923-4.296,4.296-4.296c2.372,0,4.294,1.923,4.294,4.296 C41.454,71.496,39.532,73.421,37.16,73.421z M41.083,72.255c0.511-0.638,0.866-1.402,1.018-2.239l17.669,1.019 c0.018,2.553,1.944,4.656,4.42,4.955l0.014,10.151c-1.355,0.162-2.547,0.863-3.353,1.886L41.083,72.255z M69.09,91.126 c0,2.374-1.922,4.297-4.295,4.297s-4.297-1.923-4.297-4.297c0-2.37,1.924-4.294,4.297-4.294S69.09,88.755,69.09,91.126z M69.234,88.779c-0.822-1.553-2.438-2.62-4.301-2.669l-0.016-10.085c1.467-0.038,2.779-0.705,3.676-1.743l12.346,8.832 L69.234,88.779z M82.367,83.238l1.838-0.891l4.672,5.229c-0.061,0.061-0.117,0.129-0.176,0.192L82.367,83.238z M92.43,86.832 c2.371,0,4.297,1.923,4.297,4.294c0,2.373-1.926,4.296-4.297,4.296c-2.373,0-4.295-1.923-4.295-4.296 C88.135,88.755,90.057,86.832,92.43,86.832z M90.186,86.638c-0.264,0.135-0.518,0.288-0.754,0.466l-4.543-5.089l2.641-1.275 L90.186,86.638z M87.885,79.757l-4.123-9.167l21.727-0.813c0.057,0.455,0.168,0.89,0.338,1.298L87.885,79.757z M110.475,73.464 c-2.373,0-4.297-1.922-4.297-4.297c0-2.369,1.924-4.292,4.297-4.292c2.371,0,4.295,1.923,4.295,4.292 C114.77,71.542,112.848,73.464,110.475,73.464z"/>
    <path d="M39.995,69.125c0-1.566-1.271-2.836-2.837-2.836c-1.564,0-2.836,1.269-2.836,2.836c0,1.562,1.271,2.836,2.836,2.836 C38.724,71.961,39.995,70.687,39.995,69.125z"/>
    <path d="M12.359,48.999c0-1.563-1.273-2.837-2.836-2.837c-1.563,0-2.836,1.273-2.836,2.837s1.272,2.836,2.836,2.836 C11.085,51.835,12.359,50.563,12.359,48.999z"/>
    <path d="M89.594,48.999c0,1.563,1.271,2.836,2.836,2.836c1.562,0,2.836-1.271,2.836-2.836c0-1.563-1.271-2.837-2.836-2.837 S89.594,47.436,89.594,48.999z"/>
    <path d="M37.16,31.712c1.564,0,2.836-1.272,2.836-2.838c0-1.562-1.271-2.836-2.836-2.836c-1.565,0-2.838,1.273-2.838,2.836 C34.322,30.439,35.594,31.712,37.16,31.712z"/>
    <path d="M64.795,31.712c1.562,0,2.834-1.272,2.834-2.838c0-1.562-1.27-2.836-2.834-2.836s-2.838,1.273-2.838,2.836 C61.957,30.439,63.229,31.712,64.795,31.712z"/>
  </symbol>

  <symbol id="icon__callout--security" viewBox="0 0 120 120">
    <g>
      <path d="M60.001,34.386c-14.146,0-25.615,11.467-25.615,25.614c0,14.146,11.469,25.614,25.615,25.614 c14.147,0,25.613-11.468,25.613-25.614C85.614,45.853,74.148,34.386,60.001,34.386z M60.001,78.153 c-10.106,0-18.328-8.224-18.328-18.326c0-10.106,8.222-18.329,18.328-18.329s18.327,8.223,18.327,18.329 C78.328,69.93,70.107,78.153,60.001,78.153z"/>
      <path d="M60,43.602c-9.043,0-16.399,7.356-16.399,16.399c0,9.041,7.356,16.397,16.399,16.397s16.399-7.356,16.399-16.397 C76.399,50.958,69.043,43.602,60,43.602z M60,75.386c-8.366,0-15.172-6.806-15.172-15.172c0-8.363,6.806-15.169,15.172-15.169 c8.365,0,15.168,6.806,15.168,15.169C75.168,68.58,68.365,75.386,60,75.386z"/>
      <path d="M60.001,46.428c-7.485,0-13.574,6.089-13.574,13.572c0,7.482,6.089,13.572,13.574,13.572 c7.483,0,13.571-6.09,13.571-13.572C73.572,52.517,67.484,46.428,60.001,46.428z"/>
    </g>
    <polygon points="60.325,28.525 59.675,28.525 59.675,23.966 60.325,23.966"/>
    <g>
      <path d="M60.158,19.143v3.619h-0.966v-3.619c-22.31,0.262-40.38,18.481-40.38,40.851c0,22.531,18.33,40.863,40.862,40.863 s40.863-18.33,40.863-40.863C100.538,37.624,82.467,19.404,60.158,19.143z M59.675,95.617c-19.674,0-35.623-15.949-35.623-35.624 s15.949-35.622,35.623-35.622c19.675,0,35.623,15.948,35.623,35.622C95.298,79.668,79.35,95.617,59.675,95.617z"/>
      <path d="M60,13.222c-25.834,0-46.779,20.943-46.779,46.778c0,25.836,20.945,46.778,46.779,46.778 c25.833,0,46.779-20.942,46.779-46.778C106.779,34.165,85.833,13.222,60,13.222z M59.527,102.276 C36.215,102.276,17.25,83.312,17.25,60c0-23.312,18.965-42.276,42.277-42.276c23.312,0,42.276,18.965,42.276,42.277 C101.804,83.312,82.839,102.276,59.527,102.276z"/>
    </g>
    <polygon points="60.325,96.034 59.675,96.034 59.675,91.476 60.325,91.476"/>
    <polygon points="57.597,26.982 57.413,24.059 58.063,24.017 58.246,26.941"/>
    <polygon points="61.937,95.984 61.753,93.059 62.403,93.02 62.587,95.942"/>
    <polygon points="55.528,27.198 55.161,24.292 55.806,24.211 56.175,27.117"/>
    <polygon points="64.192,95.791 63.824,92.884 64.472,92.802 64.839,95.709"/>
    <polygon points="53.477,27.545 52.928,24.666 53.567,24.544 54.117,27.423"/>
    <polygon points="66.433,95.457 65.883,92.579 66.521,92.457 67.071,95.334"/>
    <polygon points="51.451,28.018 50.723,25.179 51.354,25.017 52.082,27.856"/>
    <polygon points="68.647,94.98 67.917,92.144 68.548,91.98 69.278,94.819"/>
    <polygon points="49.963,30.167 48.556,25.831 49.176,25.631 50.584,29.965"/>
    <polygon points="70.824,94.371 69.416,90.035 70.036,89.834 71.444,94.171"/>
    <polygon points="47.511,29.342 46.433,26.616 47.038,26.377 48.117,29.103"/>
    <polygon points="72.962,93.623 71.884,90.899 72.489,90.66 73.566,93.385"/>
    <polygon points="45.61,30.186 44.363,27.535 44.951,27.257 46.2,29.908"/>
    <polygon points="75.048,92.745 73.8,90.092 74.388,89.814 75.636,92.468"/>
    <polygon points="43.767,31.149 42.354,28.58 42.926,28.268 44.338,30.836"/>
    <polygon points="77.074,91.732 75.662,89.165 76.232,88.851 77.645,91.42"/>
    <polygon points="41.987,32.225 40.416,29.751 40.968,29.401 42.537,31.876"/>
    <polygon points="79.031,90.6 77.464,88.125 78.013,87.776 79.583,90.251"/>
    <polygon points="41.235,34.728 38.556,31.04 39.082,30.657 41.761,34.347"/>
    <polygon points="80.915,89.345 78.237,85.655 78.763,85.273 81.441,88.962"/>
    <polygon points="38.647,34.702 36.781,32.443 37.281,32.029 39.148,34.287"/>
    <polygon points="82.717,87.973 80.849,85.716 81.352,85.301 83.219,87.559"/>
    <polygon points="37.101,36.093 35.096,33.957 35.571,33.51 37.576,35.647"/>
    <polygon points="84.429,86.489 82.423,84.356 82.898,83.908 84.905,86.045"/>
    <polygon points="35.646,37.577 33.51,35.571 33.955,35.097 36.091,37.102"/>
    <polygon points="86.044,84.905 83.906,82.897 84.353,82.423 86.49,84.429"/>
    <polygon points="34.286,39.15 32.027,37.282 32.442,36.78 34.7,38.649"/>
    <polygon points="87.558,83.219 85.3,81.354 85.713,80.852 87.973,82.718"/>
    <polygon points="34.344,41.765 30.657,39.086 31.039,38.558 34.727,41.237"/>
    <polygon points="88.96,81.445 85.272,78.764 85.656,78.24 89.343,80.919"/>
    <polygon points="31.875,42.539 29.401,40.969 29.75,40.418 32.226,41.989"/>
    <polygon points="90.25,79.584 87.776,78.013 88.125,77.466 90.6,79.032"/>
    <polygon points="30.835,44.34 28.267,42.927 28.579,42.356 31.146,43.768"/>
    <polygon points="91.42,77.645 88.852,76.233 89.165,75.663 91.732,77.073"/>
    <polygon points="29.908,46.2 27.256,44.953 27.533,44.364 30.185,45.612"/>
    <polygon points="92.464,75.638 89.812,74.391 90.09,73.801 92.742,75.05"/>
    <polygon points="29.103,48.117 26.378,47.038 26.615,46.433 29.339,47.512"/>
    <polygon points="93.385,73.566 90.658,72.488 90.896,71.885 93.624,72.962"/>
    <polygon points="29.965,50.585 25.63,49.177 25.831,48.558 30.165,49.965"/>
    <polygon points="94.17,71.446 89.835,70.037 90.035,69.417 94.37,70.828"/>
    <polygon points="27.856,52.085 25.016,51.354 25.179,50.726 28.017,51.455"/>
    <polygon points="94.82,69.279 91.983,68.551 92.146,67.92 94.983,68.648"/>
    <polygon points="27.423,54.118 24.543,53.569 24.666,52.93 27.545,53.479"/>
    <polygon points="95.334,67.073 92.457,66.523 92.579,65.885 95.456,66.434"/>
    <polygon points="27.114,56.176 24.209,55.809 24.292,55.161 27.198,55.529"/>
    <polygon points="95.707,64.84 92.802,64.474 92.885,63.825 95.791,64.193"/>
    <polygon points="26.94,58.248 24.016,58.063 24.059,57.412 26.981,57.599"/>
    <polygon points="95.941,62.588 93.018,62.404 93.058,61.753 95.981,61.938"/>
    <polygon points="28.523,60.328 23.966,60.328 23.966,59.675 28.523,59.677"/>
    <polygon points="96.034,60.328 91.476,60.328 91.476,59.675 96.034,59.677"/>
    <polygon points="24.059,62.588 24.018,61.938 26.941,61.755 26.982,62.406"/>
    <polygon points="93.058,58.248 93.018,57.599 95.942,57.413 95.983,58.064"/>
    <polygon points="24.292,64.842 24.209,64.194 27.117,63.825 27.198,64.474"/>
    <polygon points="92.885,56.176 92.802,55.529 95.707,55.162 95.791,55.81"/>
    <polygon points="24.666,67.073 24.543,66.434 27.423,65.885 27.543,66.525"/>
    <polygon points="92.579,54.118 92.457,53.479 95.334,52.93 95.456,53.569"/>
    <polygon points="25.179,69.279 25.016,68.648 27.856,67.92 28.017,68.551"/>
    <polygon points="92.146,52.085 91.983,51.455 94.82,50.726 94.983,51.354"/>
    <polygon points="25.831,71.446 25.63,70.828 29.965,69.417 30.165,70.037"/>
    <polygon points="90.035,50.585 89.835,49.965 94.17,48.558 94.372,49.178"/>
    <polygon points="26.615,73.568 26.378,72.964 29.103,71.887 29.341,72.491"/>
    <polygon points="90.899,48.118 90.661,47.513 93.385,46.435 93.624,47.039"/>
    <polygon points="27.533,75.638 27.256,75.05 29.909,73.801 30.186,74.391"/>
    <polygon points="90.09,46.201 89.812,45.613 92.467,44.365 92.744,44.953"/>
    <polygon points="28.58,77.646 28.268,77.075 30.836,75.665 31.147,76.233"/>
    <polygon points="89.165,44.341 88.852,43.769 91.42,42.357 91.732,42.928"/>
    <polygon points="29.75,79.586 29.401,79.034 31.876,77.466 32.226,78.013"/>
    <polygon points="88.125,42.54 87.776,41.989 90.25,40.418 90.6,40.969"/>
    <polygon points="31.039,81.445 30.657,80.919 34.346,78.24 34.728,78.767"/>
    <polygon points="85.656,41.765 85.275,41.237 88.963,38.559 89.345,39.086"/>
    <polygon points="32.443,83.221 32.028,82.72 34.288,80.853 34.701,81.355"/>
    <polygon points="85.715,39.151 85.301,38.65 87.558,36.781 87.973,37.283"/>
    <polygon points="33.956,84.907 33.512,84.433 35.647,82.425 36.091,82.899"/>
    <polygon points="84.354,37.579 83.908,37.104 86.044,35.098 86.49,35.572"/>
    <polygon points="35.572,86.492 35.097,86.046 37.102,83.91 37.577,84.356"/>
    <polygon points="82.898,36.095 82.423,35.647 84.429,33.512 84.905,33.958"/>
    <polygon points="37.281,87.974 36.781,87.559 38.647,85.301 39.149,85.716"/>
    <polygon points="81.354,34.702 80.851,34.288 82.717,32.03 83.219,32.444"/>
    <polygon points="39.084,89.346 38.557,88.962 41.237,85.273 41.765,85.656"/>
    <polygon points="78.765,34.729 78.239,34.347 80.918,30.658 81.443,31.041"/>
    <polygon points="40.968,90.602 40.416,90.251 41.988,87.778 42.538,88.127"/>
    <polygon points="78.013,32.227 77.464,31.877 79.035,29.403 79.585,29.753"/>
    <polygon points="42.927,91.735 42.354,91.423 43.768,88.854 44.339,89.167"/>
    <polygon points="76.234,31.15 75.664,30.838 77.074,28.269 77.645,28.581"/>
    <polygon points="44.953,92.745 44.365,92.468 45.612,89.815 46.2,90.094"/>
    <polygon points="74.391,30.188 73.801,29.911 75.047,27.259 75.637,27.536"/>
    <polygon points="47.039,93.626 46.434,93.386 47.513,90.66 48.117,90.899"/>
    <polygon points="72.489,29.344 71.884,29.104 72.962,26.379 73.566,26.618"/>
    <polygon points="49.176,94.372 48.556,94.171 49.964,89.836 50.586,90.037"/>
    <polygon points="70.037,30.168 69.417,29.966 70.828,25.632 71.448,25.833"/>
    <polygon points="51.354,94.985 50.724,94.822 51.454,91.982 52.083,92.146"/>
    <polygon points="68.55,28.02 67.919,27.857 68.647,25.019 69.278,25.181"/>
    <polygon points="53.568,95.458 52.928,95.336 53.479,92.457 54.117,92.58"/>
    <polygon points="66.523,27.547 65.884,27.425 66.433,24.545 67.071,24.666"/>
    <polygon points="55.808,95.793 55.163,95.711 55.528,92.804 56.176,92.887"/>
    <polygon points="64.474,27.2 63.826,27.12 64.193,24.212 64.841,24.293"/>
    <polygon points="58.063,95.985 57.415,95.945 57.599,93.02 58.248,93.06"/>
    <polygon points="62.404,26.984 61.754,26.944 61.937,24.02 62.587,24.06"/>
  </symbol>

</svg>